<?xml version="1.0" standalone="no"?>
<!DOCTYPE svg PUBLIC "-//W3C//DTD SVG 20010904//EN"
 "http://www.w3.org/TR/2001/REC-SVG-20010904/DTD/svg10.dtd">
<svg version="1.0" xmlns="http://www.w3.org/2000/svg"
 width="1270.000000pt" height="1600.000000pt" viewBox="0 0 1270.000000 1600.000000"
 preserveAspectRatio="xMidYMid meet">

<g transform="translate(0.000000,1600.000000) scale(0.100000,-0.100000)"
fill="#000000" stroke="none">
<path d="M0 8178 l0 -7823 28 31 28 32 128 1 c87 1 126 -1 121 -9 -12 -19 5
-30 30 -18 32 14 62 3 45 -17 -6 -8 -9 -19 -5 -25 9 -15 42 -12 49 5 3 8 13
15 21 15 9 0 14 -4 11 -9 -3 -5 1 -14 9 -21 18 -15 72 -4 85 18 5 9 10 14 10
10 0 -4 13 -3 29 2 15 4 34 4 41 0 8 -5 19 -3 26 4 17 17 74 9 67 -10 -3 -8 1
-14 11 -14 9 0 16 7 16 15 0 9 11 20 25 25 40 15 162 27 180 18 9 -6 15 -5 15
2 0 5 19 10 43 10 39 0 43 -3 43 -22 -1 -17 4 -22 19 -21 11 2 38 4 60 5 22 2
47 11 55 20 21 24 55 28 54 5 -1 -10 5 -17 15 -16 21 1 69 17 56 18 -5 1 -3 6
5 11 24 16 80 12 87 -6 4 -11 13 -13 33 -9 22 5 28 2 33 -14 3 -13 17 -22 43
-27 22 -4 56 -13 77 -22 43 -17 53 -11 61 33 4 17 3 24 0 18 -3 -7 -23 -13
-45 -13 -24 0 -38 4 -34 10 3 6 -1 7 -9 4 -15 -6 -76 16 -76 27 0 19 69 30
224 34 287 7 517 8 523 1 4 -3 0 -6 -9 -6 -8 0 -15 -7 -15 -15 0 -17 13 -20
22 -5 3 6 12 10 18 10 7 0 6 -4 -3 -10 -11 -7 -4 -10 28 -10 23 0 42 5 42 10
0 6 19 11 43 12 l42 1 -37 4 c-63 7 -43 23 28 23 41 0 63 -4 59 -10 -3 -6 -16
-11 -28 -11 -20 -1 -20 -2 -2 -6 40 -8 63 -25 58 -43 -3 -10 2 -20 12 -24 23
-8 65 4 65 19 0 7 12 16 26 19 21 6 25 12 21 31 -3 19 0 25 14 25 11 0 19 -7
19 -15 0 -12 17 -15 89 -15 88 0 120 11 90 32 -16 10 282 4 317 -7 16 -5 20
-13 17 -28 -4 -21 -3 -21 10 -4 16 19 42 24 31 5 -6 -10 -4 -10 7 -1 19 18 50
17 43 -2 -8 -21 2 -19 27 6 15 15 28 19 47 15 15 -4 44 -11 64 -15 21 -5 44
-14 52 -20 10 -9 16 -9 21 -1 4 7 11 7 18 2 12 -9 47 -12 167 -15 50 -2 65 -5
65 -17 1 -24 15 -40 36 -40 10 0 19 -6 19 -12 0 -7 9 2 20 20 21 34 35 40 43
18 3 -8 -2 -16 -14 -19 -13 -3 -17 -11 -13 -21 7 -19 34 -22 34 -3 1 6 9 2 19
-10 23 -28 37 -29 50 -4 9 16 16 17 57 10 26 -5 74 -8 107 -8 40 1 62 -3 67
-12 6 -8 24 -12 49 -11 21 2 42 -1 45 -6 3 -5 27 -8 53 -7 47 2 108 -18 99
-33 -2 -4 4 -8 14 -8 10 0 16 5 13 10 -4 6 24 7 73 3 43 -4 81 -12 82 -17 2
-6 17 -10 32 -10 16 0 32 -5 35 -10 4 -6 10 -8 15 -5 13 8 17 -74 4 -88 -7 -6
-16 -38 -19 -69 l-7 -58 56 0 c37 0 58 4 60 12 2 7 9 45 15 85 12 82 40 150
53 131 6 -10 8 -10 8 0 0 24 19 12 23 -15 2 -17 4 -11 4 14 0 35 -3 41 -14 32
-9 -8 -13 -8 -13 -1 0 6 5 14 10 17 6 3 10 15 10 25 0 38 119 244 121 209 0
-17 49 120 49 140 0 7 -22 -10 -48 -38 -27 -29 -56 -51 -68 -50 -18 0 -18 1 2
9 19 7 33 23 97 103 21 26 23 27 44 12 19 -13 20 -19 12 -50 -10 -35 -6 -55
11 -55 5 0 11 8 13 17 3 12 5 8 6 -9 1 -34 11 -58 22 -58 6 0 5 8 -1 19 -5 11
-10 31 -10 45 0 14 -4 26 -10 26 -5 0 -10 9 -10 21 0 19 4 20 54 14 32 -4 76
-2 111 6 53 12 59 11 71 -6 13 -18 14 -17 14 7 0 17 7 27 20 31 21 5 34 -6 49
-44 6 -16 10 -18 10 -7 1 9 -3 28 -9 42 -7 20 -6 26 9 31 26 8 140 82 176 114
l30 26 -25 -30 c-14 -16 -31 -34 -38 -38 -7 -5 -10 -12 -7 -16 2 -5 -1 -14 -9
-20 -13 -11 -11 -57 4 -66 5 -3 2 -19 -7 -35 -18 -37 -14 -95 16 -225 20 -88
29 -265 14 -265 -5 0 -9 37 -9 83 -1 51 -9 104 -22 142 l-20 60 -1 -75 c-2
-151 2 -363 7 -322 2 20 7 30 14 26 6 -4 8 -3 5 3 -7 12 75 13 84 1 10 -15
137 -22 154 -8 10 8 15 9 15 1 0 -6 12 -11 26 -11 26 0 135 -25 164 -37 35
-15 83 -16 666 -20 606 -3 612 -3 617 17 3 11 -3 30 -13 42 -61 79 -144 246
-164 331 l-7 28 71 -37 c48 -25 70 -42 70 -54 0 -11 5 -22 10 -25 6 -3 10 -13
10 -21 0 -8 8 -23 18 -33 9 -10 27 -31 39 -45 l22 -26 14 30 c14 27 13 33 -3
66 -11 20 -27 42 -37 50 -17 13 -17 14 2 7 11 -3 25 -10 31 -15 18 -14 54 -21
114 -22 30 0 61 -5 69 -10 10 -6 16 -6 19 2 5 15 62 16 62 1 0 -8 4 -8 14 0
10 8 16 9 21 1 8 -14 26 -13 22 1 -5 23 23 20 32 -3 9 -24 41 -57 41 -43 0 4
-9 23 -21 41 -21 34 -18 40 19 35 7 -1 28 7 47 19 32 20 62 20 50 0 -3 -4 2
-10 10 -14 8 -3 15 -17 15 -31 0 -19 5 -25 21 -25 17 0 19 3 10 13 -6 8 -8 17
-4 21 4 3 -6 20 -22 36 l-29 30 23 21 c21 20 22 27 21 177 -2 198 1 324 7 294
3 -15 10 -22 19 -18 10 4 14 -2 14 -19 0 -39 18 -29 23 13 l4 37 1 -37 c2 -37
3 -38 42 -38 22 0 63 11 92 25 55 27 114 33 120 13 3 -8 14 -3 32 15 17 17 38
27 56 27 17 0 30 5 30 13 0 9 2 9 8 0 4 -7 21 -11 37 -10 28 2 30 0 33 -39 3
-35 0 -42 -17 -47 -12 -3 -21 -11 -20 -19 0 -10 2 -10 6 0 5 14 33 17 33 2 0
-5 -7 -13 -16 -18 -9 -5 -14 -14 -10 -21 5 -7 14 -6 32 5 13 9 24 14 24 10 0
-8 84 25 91 37 4 6 16 3 30 -7 31 -22 49 -20 49 4 0 16 7 20 30 20 29 0 30 -2
30 -45 0 -42 11 -59 23 -35 3 6 4 5 3 -2 -6 -26 15 -47 52 -53 20 -4 52 -11
70 -17 25 -7 44 -6 80 6 45 16 48 16 64 -4 21 -26 48 -26 48 0 0 11 4 20 9 20
21 0 41 -13 41 -26 0 -10 13 -14 45 -14 46 0 54 7 33 28 -7 7 -17 8 -30 1 -15
-8 -18 -6 -19 11 -1 11 -2 25 -3 31 -1 7 13 13 30 15 26 3 33 -1 38 -19 4 -16
8 -18 14 -9 6 9 16 10 38 3 16 -5 55 -12 86 -16 32 -4 60 -10 63 -15 3 -5 12
-7 19 -4 8 3 17 0 21 -5 3 -6 11 -9 16 -5 6 3 9 0 7 -8 -2 -8 11 -27 28 -44
16 -16 33 -37 37 -47 7 -19 36 -24 33 -4 -4 22 -30 57 -43 57 -7 0 -13 7 -13
16 0 12 3 14 13 6 23 -19 122 -49 170 -51 44 -2 47 0 47 24 0 14 4 25 9 25 15
0 22 -18 9 -22 -24 -8 4 -28 39 -28 34 0 35 -1 20 -18 -22 -24 -21 -29 8 -48
22 -14 26 -14 55 2 16 10 30 23 30 29 0 23 211 46 460 50 80 2 145 4 145 4 0
1 106 4 235 6 129 2 321 8 425 14 223 12 435 14 451 3 6 -4 13 -15 17 -25 4
-9 17 -21 30 -26 13 -5 34 -23 48 -41 67 -87 67 -87 86 -66 17 17 17 18 -4 11
-14 -4 -23 -2 -23 4 0 6 19 11 43 11 28 0 37 -3 28 -9 -11 -7 -9 -10 9 -16 12
-4 25 -3 29 2 6 10 42 26 51 23 3 -1 4 -6 3 -10 -2 -5 6 -12 17 -15 11 -4 20
-14 20 -24 0 -22 52 -46 76 -37 10 4 25 -1 35 -10 10 -9 27 -14 38 -11 13 3
32 -8 60 -34 22 -22 46 -39 53 -39 7 0 22 -11 32 -25 11 -15 29 -25 43 -25 15
0 36 -12 52 -29 19 -21 32 -27 42 -21 9 6 21 2 36 -12 12 -11 34 -22 49 -24
14 -1 38 -14 53 -27 22 -22 91 -45 113 -39 4 1 5 -6 1 -16 -5 -14 -3 -15 8 -4
18 17 32 15 25 -3 -4 -10 1 -15 15 -15 38 0 60 -19 53 -45 -5 -21 -2 -25 15
-25 l21 0 0 5410 -1 5410 -45 0 c-30 0 -54 7 -73 21 -20 15 -38 19 -67 16
l-39 -4 43 -1 c30 -2 42 -6 42 -17 0 -13 -24 -15 -160 -15 -100 0 -160 -4
-160 -10 0 -5 18 -10 40 -10 29 0 40 -4 40 -15 0 -11 -11 -15 -40 -15 -36 0
-40 -2 -40 -25 0 -14 -4 -25 -10 -25 -5 0 -10 18 -10 40 0 33 -3 40 -20 40
-17 0 -20 -7 -20 -40 0 -45 -17 -55 -22 -12 l-3 27 -28 -27 c-29 -29 -47 -36
-47 -18 0 6 -18 10 -40 10 -22 0 -40 -4 -40 -10 0 -5 17 -10 38 -10 l37 -1
-28 -24 c-30 -26 -47 -32 -47 -15 0 6 -33 10 -80 10 -79 0 -80 0 -80 -25 0
-27 -24 -35 -34 -10 -8 23 -40 18 -51 -7 -15 -35 -73 -68 -116 -68 -22 0 -39
-4 -39 -9 0 -5 26 -9 58 -8 31 0 76 -1 100 -2 l42 -1 0 -40 c0 -22 -4 -40 -10
-40 -5 0 -10 -18 -10 -40 l0 -40 -65 0 -65 0 0 40 c0 36 -2 40 -25 40 -22 0
-25 -4 -25 -40 0 -36 -2 -40 -25 -40 -22 0 -25 -4 -25 -40 0 -28 -4 -40 -14
-40 -9 0 -15 -14 -18 -40 l-4 -40 43 0 43 0 0 -40 c0 -33 -3 -40 -20 -40 -17
0 -20 -7 -20 -40 0 -33 -3 -40 -20 -40 -18 0 -20 -7 -20 -80 0 -66 -3 -80 -16
-80 -18 0 -44 -23 -44 -40 0 -16 -47 -60 -65 -60 -8 0 -15 -4 -15 -10 0 -5 -4
-10 -10 -10 -5 0 -10 9 -10 20 0 17 -7 20 -40 20 l-40 0 0 -40 0 -40 -80 0
c-47 0 -80 4 -80 10 0 6 -18 10 -40 10 -29 0 -40 4 -40 15 0 11 -12 15 -49 15
-31 0 -53 5 -61 15 -10 13 -9 15 9 15 18 0 21 6 21 40 l0 40 -120 0 -120 0 0
-60 0 -60 -40 0 c-33 0 -40 -3 -40 -20 0 -17 -7 -20 -40 -20 -22 0 -40 -4 -40
-10 0 -6 -33 -10 -80 -10 -47 0 -80 4 -80 10 0 6 33 10 80 10 l80 0 0 80 0 80
-40 0 c-29 0 -40 -4 -40 -15 0 -11 -11 -15 -40 -15 -36 0 -40 -2 -40 -25 0
-25 -1 -25 -80 -25 l-80 0 0 -53 c0 -41 4 -55 20 -65 22 -14 26 -42 8 -60 -16
-16 -28 -15 -28 3 0 11 -11 15 -40 15 l-40 0 0 120 0 120 -40 0 -40 0 0 40 c0
22 5 40 10 40 6 0 10 18 10 40 l0 40 -65 0 -65 0 0 40 0 40 95 0 95 0 0 40 0
40 -40 0 -40 0 0 50 0 50 -40 0 -40 0 0 -50 c0 -38 -4 -50 -15 -50 -11 0 -15
11 -15 40 0 22 -4 40 -10 40 -6 0 -10 33 -10 80 0 79 0 80 25 80 14 0 25 5 25
10 0 6 -17 10 -38 10 -36 0 -40 2 -50 39 -15 47 -15 81 -2 81 6 0 10 9 10 20
0 23 -34 28 -44 8 -5 -10 -7 -10 -12 0 -11 23 -24 12 -24 -20 0 -17 -3 -29 -6
-26 -4 5 15 1054 21 1131 1 15 3 49 4 75 1 36 5 49 16 49 8 0 15 -4 15 -8 0
-5 6 -6 14 -3 11 4 13 0 9 -18 -3 -17 -2 -19 5 -9 8 11 18 12 53 3 32 -8 50
-8 73 2 17 7 48 12 69 11 20 -1 37 3 37 9 0 6 5 4 10 -4 9 -13 10 -13 10 0 0
13 1 13 10 0 5 -8 10 -10 10 -4 0 7 11 14 25 16 14 3 25 1 25 -3 0 -5 18 -9
40 -9 24 0 40 5 40 12 0 9 3 9 12 0 17 -17 54 -15 83 4 18 11 29 13 43 5 11
-6 21 -8 23 -6 3 2 151 7 329 10 179 3 394 8 479 10 130 3 160 1 185 -13 44
-23 97 -42 122 -42 12 0 33 -17 54 -45 19 -25 42 -45 52 -45 10 0 24 -11 30
-25 8 -18 19 -25 39 -25 18 0 30 -6 34 -19 3 -11 12 -22 20 -25 8 -3 15 -17
15 -30 0 -21 7 -27 40 -37 28 -9 40 -18 40 -31 0 -14 8 -18 40 -18 22 0 40 -4
40 -9 0 -5 17 -15 38 -22 20 -6 39 -15 42 -18 16 -20 58 -31 113 -31 59 0 65
-2 76 -26 11 -25 12 -25 37 -10 23 16 26 16 53 -4 37 -26 41 -25 41 5 0 23 4
25 40 25 38 0 40 -1 40 -32 l0 -33 20 25 c20 24 21 25 35 6 20 -27 19 -34 -7
-39 -13 -2 -6 -3 15 -1 21 3 47 -2 60 -10 13 -8 37 -12 60 -9 l37 5 0 552 c-1
451 -3 554 -14 569 -10 12 -33 20 -70 24 -38 4 -56 10 -56 19 0 10 -13 14 -40
14 -22 0 -40 5 -40 10 0 6 -18 10 -39 10 -22 0 -43 5 -46 10 -3 6 -22 10 -41
10 -27 0 -34 4 -34 20 0 24 -77 60 -130 60 -35 0 -39 3 -54 40 -16 41 -30 50
-39 27 -3 -8 -20 -11 -51 -9 -48 4 -65 22 -20 22 30 0 28 16 -4 38 -20 13 -22
13 -22 -2 0 -22 -56 -21 -101 1 -20 10 -60 18 -97 19 -49 1 -68 6 -86 23 -26
24 -116 31 -116 9 0 -7 -9 -2 -20 12 l-20 25 -20 -25 -20 -25 0 28 c0 25 -3
27 -40 27 -29 0 -40 -4 -40 -15 0 -11 -11 -15 -40 -15 -29 0 -40 4 -40 15 0
11 -11 15 -40 15 -28 0 -40 4 -40 14 0 8 7 16 15 18 14 3 14 5 0 26 -12 16
-26 22 -56 22 -21 0 -39 -4 -39 -10 0 -17 -17 -11 -47 15 -27 24 -27 24 -5 25
19 0 22 5 22 40 0 29 -4 40 -15 40 -11 0 -15 11 -15 40 0 22 -4 40 -10 40 -5
0 -10 -5 -10 -11 0 -13 -58 -69 -71 -69 -5 0 -9 -7 -9 -15 0 -11 -11 -15 -40
-15 -29 0 -40 4 -40 15 0 8 5 15 10 15 6 0 10 18 10 40 l0 40 -50 0 -50 0 0
39 c0 22 -5 41 -10 43 -6 2 -13 55 -17 121 l-6 117 56 0 c54 0 57 1 57 25 0
30 10 31 41 6 19 -15 23 -27 20 -65 -2 -41 0 -46 19 -46 19 0 21 5 19 47 -3
44 -1 49 30 70 22 15 49 23 76 23 l42 0 -5 51 c-4 46 -3 51 14 47 15 -2 20
-13 22 -51 3 -38 7 -47 23 -48 10 -1 24 -2 31 -3 6 -1 13 5 16 12 2 6 -3 12
-12 12 -12 0 -16 10 -16 40 0 39 1 40 34 40 34 0 35 1 39 43 l4 42 1 -42 2
-43 39 0 c36 0 40 3 43 28 l4 27 14 -27 c7 -16 16 -28 19 -28 14 0 41 64 41
96 0 33 -1 34 -40 34 l-40 0 0 45 0 45 40 0 c38 0 40 -2 40 -30 0 -29 1 -30
50 -30 l50 0 0 40 c0 36 -2 40 -25 40 -22 0 -25 4 -25 40 l0 40 40 0 40 0 0
40 0 40 -65 0 c-51 0 -65 3 -65 15 0 11 11 15 40 15 36 0 40 3 40 25 0 21 5
25 30 25 23 0 30 5 30 19 0 24 17 36 50 36 17 0 25 6 25 17 0 25 12 32 29 16
17 -17 77 -12 70 6 -11 32 12 38 157 38 82 0 149 5 157 10 6 6 12 7 12 2 0 -5
4 -4 8 3 5 7 59 12 165 14 86 2 157 7 157 11 0 13 58 9 63 -4 4 -10 6 -10 6 0
1 8 22 12 71 12 l70 0 0 280 0 280 -41 0 c-32 0 -42 -4 -46 -20 -6 -22 -18
-26 -28 -9 -4 6 -14 8 -22 5 -8 -3 -11 -1 -8 4 3 6 -3 10 -15 10 -31 0 -60 18
-54 34 7 18 -43 31 -62 15 -8 -6 -12 -15 -9 -19 3 -4 -2 -11 -11 -14 -11 -4
-18 1 -21 14 -7 27 -39 25 -48 -2 l-8 -23 -4 23 c-3 15 -11 22 -28 22 -28 0
-75 20 -75 32 0 4 -17 8 -37 8 -22 0 -49 9 -63 20 -34 27 -40 25 -40 -10 0
-28 -2 -30 -40 -30 -32 0 -40 4 -40 18 0 9 -9 23 -20 30 -16 9 -20 23 -20 62
0 43 3 50 20 50 17 0 20 -7 20 -40 0 -33 3 -40 20 -40 17 0 20 7 20 40 0 33
-3 40 -20 40 -13 0 -20 7 -20 20 0 18 7 20 74 20 63 0 75 -3 79 -17 2 -10 2
-2 0 17 -3 27 -1 32 7 20 9 -13 11 -12 8 5 -2 11 -17 26 -33 34 l-30 15 35 14
c19 9 59 16 89 18 29 1 56 6 60 12 7 12 271 12 271 0 0 -4 9 -8 21 -8 11 0 18
4 15 9 -9 14 18 20 63 14 l41 -6 0 397 0 396 -6350 0 -6350 0 0 -7822z m12480
6632 c0 -5 -4 -10 -9 -10 -6 0 -13 5 -16 10 -3 6 1 10 9 10 9 0 16 -4 16 -10z
m-1120 -875 c0 -9 -9 -15 -21 -15 -18 0 -19 2 -9 15 7 8 16 15 21 15 5 0 9 -7
9 -15z m-2459 -148 c-8 -8 -11 -5 -11 9 0 27 14 41 18 19 2 -9 -1 -22 -7 -28z
m-3963 -94 c-71 -2 -185 -2 -255 0 -71 1 -13 3 127 3 140 0 198 -2 128 -3z
m2102 -16 c25 -4 257 -9 515 -12 259 -4 614 -10 790 -15 176 -6 368 -10 428
-10 59 0 107 -4 107 -9 0 -4 -16 -30 -37 -56 l-36 -48 -606 6 c-822 9 -1077 8
-1103 -3 -17 -6 -3 -9 53 -9 171 -2 409 -15 409 -23 0 -4 -8 -8 -17 -8 -13 -1
-9 -6 11 -16 21 -12 34 -13 50 -6 l21 11 -22 7 c-13 3 -23 10 -23 15 0 8 1204
7 1235 0 6 -2 25 0 43 4 l32 8 0 -61 0 -61 -662 -1 c-398 0 -709 -5 -778 -11
-172 -16 -622 -17 -627 -1 -3 6 -9 12 -14 12 -6 0 -7 -5 -3 -11 4 -7 -3 -6
-17 2 -17 9 -98 14 -279 16 l-255 4 -3 60 -3 59 233 2 c164 1 211 3 158 8 -41
4 -153 8 -248 9 l-172 1 5 -22 c5 -27 9 -76 7 -100 -1 -10 -14 -19 -32 -23
-16 -4 -30 -10 -30 -14 0 -4 -16 -15 -36 -25 -35 -16 -38 -16 -78 4 -36 19
-63 22 -232 27 -137 4 -193 2 -198 -6 -8 -13 -72 -15 -80 -3 -3 5 -21 9 -41
10 -20 1 -40 4 -45 7 -9 6 -952 23 -1398 26 l-263 2 3 51 3 51 750 1 c413 1
788 3 835 4 l85 3 -85 8 c-47 5 -424 12 -838 16 -736 8 -754 9 -765 28 -7 11
-19 38 -28 60 l-17 40 1627 -1 c894 0 1646 -4 1671 -7z m2867 -149 c-2 -29 -3
-6 -3 52 0 58 1 81 3 53 2 -29 2 -77 0 -105z m-6152 79 c15 -36 14 -37 -5 -37
-17 0 -20 7 -20 42 0 47 3 47 25 -5z m5128 -77 c-4 -4 -16 -5 -27 -1 -17 7
-17 8 -2 24 10 9 15 17 11 17 -3 0 0 10 7 23 12 21 13 20 16 -17 2 -21 0 -42
-5 -46z m-5103 -58 c0 -40 -3 -48 -19 -49 -13 -1 -21 7 -25 29 -11 56 -8 68
19 68 23 0 25 -3 25 -48z m7020 -152 c0 -22 5 -40 10 -40 6 0 10 -18 10 -40 0
-22 -4 -40 -10 -40 -5 0 -10 -16 -10 -35 0 -19 -1 -35 -2 -35 -2 -1 -20 -3
-40 -6 l-38 -6 0 81 c0 80 0 81 25 81 23 0 25 4 25 40 0 29 4 40 15 40 11 0
15 -11 15 -40z m-903 -172 c-2 -18 -4 -4 -4 32 0 36 2 50 4 33 2 -18 2 -48 0
-65z m-10 -100 c-3 -8 -6 -5 -6 6 -1 11 2 17 5 13 3 -3 4 -12 1 -19z m1233
-103 c0 -8 -4 -15 -9 -15 -5 0 -14 7 -21 15 -10 13 -9 15 9 15 12 0 21 -6 21
-15z m-1233 -87 c-2 -13 -4 -3 -4 22 0 25 2 35 4 23 2 -13 2 -33 0 -45z m1793
-68 c0 -5 -6 -10 -14 -10 -8 0 -18 5 -21 10 -3 6 3 10 14 10 12 0 21 -4 21
-10z m-5587 -307 c70 -3 127 -9 127 -13 0 -5 -26 -6 -57 -4 -32 2 -134 9 -228
15 -93 6 -172 13 -175 16 -3 3 42 3 100 -1 58 -4 162 -9 233 -13z m375 -18
c68 -4 121 -9 119 -12 -7 -7 -317 9 -317 16 0 7 35 7 198 -4z m-2711 -167 c-3
-8 -6 -5 -6 6 -1 11 2 17 5 13 3 -3 4 -12 1 -19z m50 -30 c-3 -8 -6 -5 -6 6
-1 11 2 17 5 13 3 -3 4 -12 1 -19z m2345 12 c40 0 67 -4 63 -9 -6 -10 -162 -5
-300 10 -69 7 -64 7 44 3 68 -2 155 -4 193 -4z m-2279 -7 c-7 -2 -19 -2 -25 0
-7 3 -2 5 12 5 14 0 19 -2 13 -5z m2512 1 c-48 -8 -115 -9 -115 -2 0 5 30 7
68 7 37 -1 58 -3 47 -5z m103 -1 c-16 -2 -40 -2 -55 0 -16 2 -3 4 27 4 30 0
43 -2 28 -4z m-3501 -1225 c-3 -8 -6 -5 -6 6 -1 11 2 17 5 13 3 -3 4 -12 1
-19z m3013 -104 c0 -11 6 -14 20 -9 12 4 28 1 36 -6 10 -8 18 -9 22 -2 4 5 14
10 22 11 8 0 31 2 51 3 32 2 43 -4 78 -41 23 -24 41 -49 41 -57 0 -7 6 -13 13
-13 7 0 28 -20 45 -45 34 -49 40 -64 18 -46 -11 10 -16 8 -20 -6 -5 -16 -17
-18 -91 -17 -47 1 -84 -1 -81 -4 3 -3 -20 -15 -51 -28 -69 -28 -72 -31 -80
-79 -6 -36 -5 -38 18 -32 23 6 23 5 5 -8 -11 -8 -23 -15 -27 -15 -17 0 -39
-62 -29 -80 6 -10 10 -33 10 -50 0 -21 4 -29 12 -24 6 4 68 8 137 9 107 1 131
4 163 21 21 12 35 24 32 26 -10 11 33 15 47 4 10 -8 13 -28 11 -73 -3 -57 -6
-63 -32 -75 -29 -13 -65 -72 -54 -90 10 -16 -17 -58 -38 -58 -11 0 -18 -7 -18
-20 0 -17 -5 -19 -32 -13 -18 3 -42 17 -54 31 -19 24 -21 24 -28 6 -4 -11 -3
-20 3 -22 6 -2 11 -7 11 -12 0 -5 -13 -2 -29 6 -26 13 -28 18 -24 57 4 36 1
48 -21 74 -14 17 -26 34 -26 37 0 7 -13 25 -45 59 -18 20 -20 20 -23 4 -3 -14
-11 -17 -35 -15 -32 3 -32 4 -30 53 1 28 -5 71 -13 97 -9 26 -13 52 -9 58 3 5
0 7 -8 4 -12 -4 -13 2 -7 34 4 22 3 47 -2 56 -8 15 -100 66 -119 66 -5 0 -23
13 -40 29 l-31 30 33 3 c28 3 33 7 35 33 6 60 11 75 32 100 22 25 56 33 67 15
3 -5 26 -10 51 -10 33 0 47 5 56 20 15 24 28 26 28 4z m-347 -119 c-3 -9 -8
-14 -10 -11 -3 3 -2 9 2 15 9 16 15 13 8 -4z m6937 -15 c0 -5 -7 -10 -15 -10
-8 0 -15 -7 -15 -15 0 -11 -11 -15 -40 -15 -29 0 -40 4 -40 15 0 11 11 15 40
15 22 0 40 5 40 10 0 6 7 10 15 10 8 0 15 -4 15 -10z m-6952 -167 c-10 -2 -28
-2 -40 0 -13 2 -5 4 17 4 22 1 32 -1 23 -4z m6289 -25 c-3 -8 -6 -5 -6 6 -1
11 2 17 5 13 3 -3 4 -12 1 -19z m-5567 3 c30 -8 40 -41 13 -41 -11 0 -23 4
-28 9 -6 5 -32 16 -60 24 l-50 16 50 -1 c28 0 61 -3 75 -7z m5560 -81 c0 -17
-7 -20 -40 -20 -33 0 -40 3 -40 20 0 17 7 20 40 20 33 0 40 -3 40 -20z m-6077
-97 c-4 -11 -8 -13 -11 -5 -2 7 -13 12 -25 13 -20 1 -20 2 3 8 31 10 41 5 33
-16z m-27 -28 c-7 -18 5 -20 23 -2 10 10 15 8 26 -6 15 -20 9 -57 -11 -73 -19
-15 -44 -99 -44 -146 0 -37 -20 -58 -60 -64 -8 -1 -30 -8 -47 -15 -42 -17 -54
-5 -59 58 -5 71 -25 152 -41 164 -19 16 -16 29 11 54 20 18 36 22 102 23 44 1
80 6 82 12 2 5 8 10 14 10 6 0 8 -7 4 -15z m89 -165 c3 -5 -1 -10 -9 -10 -9 0
-16 5 -16 10 0 6 4 10 9 10 6 0 13 -4 16 -10z m97 -22 c-9 -9 -34 -12 -77 -9
-23 1 -27 3 -15 11 17 12 104 10 92 -2z m3825 -60 c-3 -7 -5 -2 -5 12 0 14 2
19 5 13 2 -7 2 -19 0 -25z m-4127 -92 c0 -3 -4 -8 -10 -11 -5 -3 -10 -1 -10 4
0 6 5 11 10 11 6 0 10 -2 10 -4z m555 -33 c10 -23 10 -41 1 -75 -7 -24 -10
-26 -23 -13 -10 11 -12 24 -7 48 4 17 7 38 5 45 -3 18 16 14 24 -5z m3578 -33
c3 -11 1 -18 -4 -14 -5 3 -9 12 -9 20 0 20 7 17 13 -6z m-4126 -32 c-3 -8 -6
-5 -6 6 -1 11 2 17 5 13 3 -3 4 -12 1 -19z m4110 -65 l0 -78 -6 65 c-6 55 -5
90 3 90 1 0 2 -35 3 -77z m-777 14 c0 -8 -31 -19 -87 -31 -117 -23 -117 -23
-120 -6 -2 9 5 16 19 17 13 1 57 9 98 17 41 8 78 15 83 15 4 1 7 -5 7 -12z
m887 -64 c-3 -10 -5 -2 -5 17 0 19 2 27 5 18 2 -10 2 -26 0 -35z m-1527 21
c184 -2 340 -5 345 -5 6 0 26 -1 45 -2 30 -2 35 -5 35 -27 0 -18 -6 -26 -23
-28 -13 -2 -29 2 -37 8 -9 7 -15 8 -20 0 -8 -12 -100 -13 -123 -1 -9 5 -181
11 -382 15 -433 7 -582 15 -577 30 6 18 85 25 247 19 85 -2 306 -7 490 -9z
m-3150 -9 c0 -8 4 -14 9 -12 5 1 9 -1 10 -5 3 -21 0 -29 -8 -23 -6 3 -14 -2
-19 -11 -6 -11 -12 -13 -16 -6 -5 8 -15 8 -32 2 -24 -9 -400 -25 -528 -22 -69
1 -117 25 -95 47 33 32 121 41 402 44 243 1 277 0 277 -14z m854 -48 c-10 -45
-26 -67 -54 -74 -14 -4 -31 -12 -38 -20 -7 -7 -31 -13 -53 -13 -32 0 -39 3
-37 16 2 10 -3 19 -11 22 -8 3 -11 0 -7 -7 10 -16 -3 -14 -20 3 -26 27 -13 64
16 46 9 -5 24 0 45 16 18 13 45 24 61 24 16 0 37 7 47 14 10 8 27 12 38 9 17
-5 19 -11 13 -36z m-2297 -49 c-2 -13 -4 -3 -4 22 0 25 2 35 4 23 2 -13 2 -33
0 -45z m5027 -270 c-2 -172 -1 -306 2 -298 3 8 8 22 11 30 4 11 8 8 13 -10 l8
-25 1 24 c1 13 4 22 7 18 10 -10 78 22 96 46 21 27 19 52 23 -238 2 -121 4
-231 5 -245 0 -14 -2 -86 -5 -160 -3 -74 -6 -195 -6 -268 -1 -73 -5 -135 -10
-138 -5 -3 -9 -15 -10 -27 -1 -21 -1 -21 -8 2 -6 24 -19 34 -54 45 -11 4 -21
15 -24 26 -3 11 -9 21 -14 21 -5 1 -14 2 -21 3 -7 0 -18 11 -24 24 -9 19 -13
-26 -20 -220 l-9 -243 -5 345 c-3 190 -7 314 -8 275 -2 -48 -5 -65 -12 -55 -5
8 -6 26 -3 40 6 23 5 24 -11 11 -15 -13 -19 -13 -27 0 -6 9 -9 -2 -10 -36 -1
-27 -1 -54 0 -58 2 -12 -22 -42 -36 -44 -8 -2 -13 7 -13 21 0 36 -13 38 -35 6
-10 -16 -31 -31 -46 -34 -36 -7 -102 4 -114 20 -9 11 -67 23 -140 30 -18 1
-38 13 -50 28 -11 14 -31 26 -43 26 -11 0 -26 9 -33 21 -8 16 -17 20 -42 16
-47 -8 -132 6 -130 21 2 7 -2 12 -7 12 -6 0 -10 -4 -10 -9 0 -13 -57 -19 -98
-10 -20 5 -70 13 -109 20 -41 6 -73 16 -74 22 0 7 -4 3 -9 -8 -5 -12 -9 -14
-9 -6 -1 11 -4 10 -15 -4 -12 -17 -13 -16 -20 10 -10 40 -58 106 -110 152 -54
48 -316 187 -369 197 -47 9 -87 26 -87 38 0 5 11 70 25 144 14 74 25 169 25
210 0 44 6 90 15 111 8 19 15 61 16 92 0 39 3 50 8 36 5 -11 8 -55 8 -97 l0
-78 40 -29 c69 -50 156 -172 133 -186 -6 -4 -8 -21 -4 -41 5 -28 3 -34 -11
-34 -15 0 -17 -6 -11 -41 8 -50 24 -75 73 -111 70 -53 135 -121 165 -174 16
-30 34 -57 40 -60 14 -9 0 34 -23 71 -23 38 -33 60 -49 110 -12 38 -52 122
-119 250 -23 43 -28 62 -19 70 8 7 9 6 4 -2 -4 -7 -1 -22 7 -33 13 -18 16 -19
27 -5 16 19 30 19 66 0 16 -8 37 -15 46 -15 9 0 18 -6 21 -12 3 -10 7 -10 19
0 8 7 26 11 39 8 13 -2 30 1 37 7 16 12 62 -10 62 -30 0 -7 5 -13 10 -13 6 0
10 5 10 10 0 6 12 16 26 22 21 10 27 9 35 -3 5 -8 9 -9 9 -2 0 6 15 17 33 23
l32 12 -25 8 c-14 5 -50 9 -80 10 -106 3 -19 19 110 20 180 1 292 6 403 19 55
6 102 9 106 6 5 -2 17 2 27 10 13 10 46 14 101 15 85 0 117 -6 107 -21 -5 -8
2 -10 46 -13 11 -1 16 -16 18 -58 2 -32 7 -58 12 -58 6 0 10 8 11 18 0 11 2
12 6 4 4 -10 8 -10 19 -1 11 9 14 8 14 -5 0 -10 4 -15 9 -12 4 3 11 130 15
283 6 267 15 463 22 463 1 0 1 -141 -2 -312z m1486 242 c0 -5 -4 -10 -9 -10
-6 0 -13 5 -16 10 -3 6 1 10 9 10 9 0 16 -4 16 -10z m800 -5 c0 -8 -4 -15 -9
-15 -5 0 -14 7 -21 15 -10 13 -9 15 9 15 12 0 21 -6 21 -15z m-7283 -625 c4
-74 9 -116 11 -94 3 44 28 64 51 41 8 -8 11 -2 13 21 0 18 1 38 2 45 1 15 38
53 49 49 5 -1 22 6 38 15 25 15 31 15 38 4 5 -8 25 -13 50 -13 23 1 65 -10 96
-24 31 -13 64 -24 75 -24 11 0 24 -9 30 -20 7 -14 21 -20 44 -20 20 0 40 -8
51 -20 13 -14 22 -17 29 -10 12 12 126 14 126 1 0 -5 23 -8 50 -7 36 1 50 -3
50 -12 0 -10 8 -12 30 -7 20 4 30 3 30 -5 0 -7 8 -10 20 -7 11 3 20 2 20 -2 0
-4 -18 -52 -40 -107 -50 -121 -51 -160 -2 -94 31 42 44 89 21 75 -6 -4 -5 3 3
14 13 21 13 21 16 -9 2 -19 -5 -44 -19 -67 -13 -20 -17 -33 -11 -29 20 12 39
58 44 108 3 26 2 46 -2 43 -15 -9 35 122 61 160 15 22 30 55 34 72 10 51 20
46 17 -8 -4 -50 15 -123 50 -193 24 -48 12 -85 -34 -105 -65 -29 -180 -155
-228 -251 -12 -25 -44 -75 -71 -111 -42 -57 -81 -134 -120 -236 -5 -14 -12
-24 -14 -21 -3 3 13 50 35 104 52 125 59 152 23 89 -22 -39 -34 -51 -56 -53
-15 -2 -25 -7 -23 -11 3 -3 -4 -7 -14 -7 -10 0 -16 4 -14 8 9 15 -35 29 -56
18 -11 -6 -20 -7 -20 -3 0 4 -17 -10 -39 -31 -26 -26 -40 -34 -43 -24 -4 11
-11 11 -39 -1 -19 -8 -56 -14 -84 -13 -27 1 -70 3 -95 4 -27 1 -50 8 -57 17
-11 14 -12 14 -13 1 -2 -25 -16 20 -24 74 -4 27 -11 44 -15 38 -5 -8 -14 -8
-34 3 l-27 14 4 -362 c4 -323 4 -339 -4 -152 -10 235 -21 405 -26 390 -1 -5
-5 -27 -9 -47 -6 -36 -21 -45 -37 -23 -5 6 -8 5 -8 -2 0 -21 -21 -15 -46 13
-21 22 -24 35 -24 102 0 112 -12 302 -19 302 -3 0 -5 -87 -4 -192 3 -177 2
-190 -12 -154 -16 44 -65 101 -65 75 0 -8 9 -25 20 -37 12 -12 19 -23 18 -23
-20 -9 -47 -3 -47 10 1 47 -55 186 -70 176 -5 -2 -13 7 -19 20 -13 28 -30 32
-38 10 -10 -24 -23 -17 -42 21 -16 34 -17 35 -22 13 -6 -25 -30 -39 -30 -16 0
9 -15 16 -42 20 -24 4 -55 9 -70 13 -24 5 -28 3 -28 -14 0 -12 -5 -24 -10 -27
-6 -4 -4 -12 5 -22 9 -9 13 -23 9 -32 -3 -9 -7 -25 -8 -35 0 -11 -7 -21 -15
-24 -10 -3 -12 2 -7 21 4 19 1 29 -10 35 -11 6 -13 11 -5 16 16 10 14 26 -3
26 -19 0 -48 -29 -41 -41 4 -5 0 -9 -8 -9 -16 0 -27 -20 -28 -53 0 -21 -1 -21
-9 -2 l-9 20 -1 -20 -1 -20 -8 20 c-10 25 -25 378 -22 495 3 90 21 140 21 56
0 -33 3 -45 11 -40 8 5 10 -1 7 -20 -3 -14 -1 -26 3 -26 5 0 9 8 10 18 0 12 2
13 6 3 8 -19 36 -51 45 -51 4 0 14 15 23 34 10 21 22 33 30 30 7 -3 16 -1 20
5 10 18 21 13 33 -15 l12 -25 23 27 c22 25 25 26 53 13 20 -10 30 -23 32 -42
5 -43 19 -31 26 23 8 59 24 100 40 100 6 0 22 -9 35 -19 23 -17 24 -17 47 6
24 24 58 30 70 12 10 -16 44 46 46 84 2 51 16 -148 17 -255 0 -54 5 -98 10
-98 5 0 7 110 6 253 -2 138 -1 239 2 224 3 -22 7 -26 18 -17 10 9 15 4 20 -20
6 -27 15 -35 39 -31 5 1 5 -6 2 -16 -6 -15 -4 -14 15 3 20 17 22 17 16 2 -4
-10 -2 -18 3 -18 6 0 11 101 12 263 l1 262 8 -230 c5 -126 12 -291 16 -365z
m3258 494 c18 -8 36 -25 39 -37 3 -13 15 -33 26 -45 23 -24 23 -57 1 -57 -8 0
-20 18 -27 40 l-12 40 -1 -36 c-1 -24 6 -42 20 -55 14 -13 18 -25 14 -44 -10
-39 -16 -41 -85 -21 -44 13 -57 20 -40 22 24 2 24 2 2 6 -12 2 -20 9 -17 14 4
5 3 9 -2 9 -4 0 -20 11 -36 24 -24 21 -26 27 -17 51 21 55 61 98 98 104 2 1
19 -6 37 -15z m3095 -29 c-7 -8 -16 -15 -21 -15 -5 0 -9 7 -9 15 0 9 9 15 21
15 18 0 19 -2 9 -15z m609 -131 c2 -2 -34 -3 -80 -2 -71 1 -77 2 -39 8 41 6
109 3 119 -6z m-3812 -42 c-12 -6 -37 19 -37 36 0 11 6 9 23 -9 12 -13 18 -26
14 -27z m3633 38 c0 -5 -4 -10 -9 -10 -5 0 -18 -3 -28 -6 -16 -6 -16 -5 2 9
23 19 35 21 35 7z m-74 -32 c-9 -5 -23 -5 -32 0 -12 6 -7 9 16 9 23 0 28 -3
16 -9z m406 -8 c7 -11 18 -20 25 -20 7 0 17 -9 23 -21 8 -13 17 -18 28 -14 9
3 13 3 9 -1 -4 -4 5 -20 19 -35 14 -15 24 -33 21 -41 -4 -9 -8 -7 -12 7 -8 22
-116 118 -140 123 -8 2 -13 8 -10 13 10 15 24 10 37 -11z m-442 -6 c0 -2 -7
-4 -15 -4 -8 0 -15 4 -15 10 0 5 7 7 15 4 8 -4 15 -8 15 -10z m349 -7 c1 14
56 -2 82 -24 18 -15 26 -125 35 -488 2 -115 9 -322 14 -460 18 -444 29 -774
36 -1047 l7 -268 -29 -57 c-16 -31 -46 -74 -66 -95 -36 -37 -63 -53 -38 -23
14 17 10 362 -10 930 -18 499 -17 547 5 539 18 -7 20 7 3 25 -11 11 -9 13 10
8 15 -4 22 -1 22 10 0 11 -7 14 -26 10 l-25 -5 2 175 c2 136 -1 177 -11 183
-10 6 -13 44 -14 147 -1 76 -4 211 -6 300 -3 89 -2 155 2 145 4 -9 7 -12 7 -5z
m-5899 -87 c42 -54 33 -61 -16 -13 -21 21 -51 47 -66 58 -41 29 -34 38 11 16
21 -11 53 -39 71 -61z m5494 58 c-16 -12 -46 -39 -66 -61 -21 -21 -38 -34 -38
-29 0 16 106 112 123 112 5 0 -3 -10 -19 -22z m-5476 -10 c7 -7 12 -21 12 -32
0 -19 -1 -18 -17 4 -9 14 -22 28 -27 32 -7 5 -5 8 5 8 8 0 20 -5 27 -12z m72
-38 c12 -23 3 -30 -34 -29 -17 1 -24 3 -15 6 11 3 15 12 11 29 -3 19 -1 23 12
18 9 -4 21 -14 26 -24z m-255 -41 c-78 -7 -159 -33 -243 -79 -30 -16 -57 -28
-59 -26 -19 18 221 126 282 126 11 0 34 8 50 18 l30 19 5 -26 c5 -26 4 -26
-65 -32z m4161 4 c-10 -10 -19 5 -10 18 6 11 8 11 12 0 2 -7 1 -15 -2 -18z
m-4043 -14 c-8 -16 -17 -28 -20 -25 -6 5 23 56 31 56 3 0 -2 -14 -11 -31z m40
-6 c3 -5 -8 -21 -24 -38 -23 -24 -29 -26 -29 -12 0 10 7 20 15 23 8 4 15 12
15 20 0 15 16 19 23 7z m5380 -18 c-3 -9 -8 -14 -10 -11 -3 3 -2 9 2 15 9 16
15 13 8 -4z m792 -51 c5 -22 1 -18 -14 15 -24 51 -27 64 -7 35 8 -11 18 -34
21 -50z m-6380 46 c-77 -35 -108 -47 -126 -49 -5 0 -7 -5 -4 -11 3 -5 -1 -10
-9 -10 -9 0 -16 -4 -16 -9 0 -5 -8 -11 -17 -14 -10 -2 -26 -8 -35 -12 -10 -4
-18 -3 -18 2 0 12 109 70 174 93 53 19 86 25 51 10z m2395 -37 c0 -7 -4 -13
-10 -13 -5 0 -10 12 -10 28 0 21 2 24 10 12 5 -8 10 -21 10 -27z m-3483 5 c-3
-8 -6 -5 -6 6 -1 11 2 17 5 13 3 -3 4 -12 1 -19z m3754 -41 c-10 -9 -11 -8 -5
6 3 10 9 15 12 12 3 -3 0 -11 -7 -18z m69 7 c0 -2 -7 -4 -15 -4 -8 0 -15 4
-15 10 0 5 7 7 15 4 8 -4 15 -8 15 -10z m120 -14 c0 -5 -2 -10 -4 -10 -3 0 -8
5 -11 10 -3 6 -1 10 4 10 6 0 11 -4 11 -10z m3547 -57 c-3 -10 -5 -2 -5 17 0
19 2 27 5 18 2 -10 2 -26 0 -35z m-4017 27 c0 -5 -4 -10 -10 -10 -5 0 -10 5
-10 10 0 6 5 10 10 10 6 0 10 -4 10 -10z m2646 -282 c-3 -156 -6 -291 -7 -300
0 -9 -7 -22 -15 -29 -16 -13 -17 0 -14 176 4 239 18 435 32 435 6 0 7 -112 4
-282z m-5256 252 c0 -5 -7 -10 -15 -10 -8 0 -15 5 -15 10 0 6 7 10 15 10 8 0
15 -4 15 -10z m6640 -95 l-7 -50 -2 46 c0 25 2 49 6 52 10 11 11 5 3 -48z
m-6190 -21 c0 -8 -5 -12 -10 -9 -6 4 -8 11 -5 16 9 14 15 11 15 -7z m4152
-122 c-1 -130 -25 -222 -59 -222 -18 0 -16 -55 3 -74 18 -19 10 -36 -17 -36
-18 0 -19 6 -14 125 3 69 5 148 5 176 0 42 3 52 20 56 18 5 22 16 20 58 -1 13
26 33 33 25 5 -4 9 -53 9 -108z m-54 72 c-3 -14 -5 -12 -10 9 -3 19 -2 25 4
19 6 -6 8 -18 6 -28z m-4052 -51 c52 -112 125 -286 120 -290 -6 -6 -22 21 -45
77 -24 59 -72 169 -102 236 -11 22 -19 43 -19 47 0 20 13 0 46 -70z m6131 -60
c-2 -21 -4 -6 -4 32 0 39 2 55 4 38 2 -18 2 -50 0 -70z m-6162 16 c7 -22 -18
-59 -40 -59 -17 0 -123 -76 -179 -129 -56 -53 -85 -110 -86 -164 0 -53 -32
-110 -87 -154 -27 -21 -74 -64 -106 -96 -42 -42 -57 -52 -52 -35 16 53 70 131
121 175 68 59 102 107 119 173 7 28 21 63 31 78 35 53 119 133 175 167 31 19
62 42 69 50 17 21 27 19 35 -6z m2085 1 c0 -11 -4 -20 -9 -20 -5 0 -7 9 -4 20
3 11 7 20 9 20 2 0 4 -9 4 -20z m3410 -26 c0 -8 -4 -12 -10 -9 -5 3 -10 10
-10 16 0 5 5 9 10 9 6 0 10 -7 10 -16z m-3440 -115 c-20 -79 -39 -127 -40
-103 0 6 4 24 9 40 5 16 14 56 21 89 16 80 22 95 27 74 2 -9 -6 -54 -17 -100z
m124 79 c34 -12 82 -37 108 -56 26 -18 98 -55 159 -82 122 -54 190 -94 231
-137 26 -27 53 -82 44 -90 -2 -2 -26 12 -53 33 -43 33 -138 82 -302 155 -30
13 -83 45 -117 70 -34 25 -83 54 -109 63 -33 13 -45 22 -41 33 3 8 6 19 6 24
0 13 5 12 74 -13z m3306 -2 c0 -8 11 -13 28 -12 l27 1 -4 -165 c-2 -91 -5
-168 -8 -172 -2 -5 -58 -8 -125 -8 l-120 0 4 175 c2 100 7 178 13 184 7 7 30
7 65 2 30 -5 56 -5 58 -1 2 5 9 7 17 4 7 -3 16 0 20 5 8 14 25 5 25 -13z
m-5420 -78 c29 -65 150 -356 150 -362 0 -2 -43 -25 -95 -50 -221 -106 -345
-223 -345 -325 0 -20 -5 -31 -14 -31 -22 0 -30 20 -27 62 2 24 -5 50 -21 77
-21 37 -22 41 -7 57 15 15 19 12 45 -43 l28 -58 3 35 c2 19 13 65 24 101 18
57 19 74 10 124 -6 32 -13 61 -17 64 -8 8 -24 -21 -24 -46 0 -13 -4 -23 -10
-23 -16 0 0 91 23 129 26 43 33 30 42 -81 7 -93 13 -101 54 -72 21 15 23 21
17 75 -6 51 -4 60 10 66 12 5 27 -5 50 -32 l33 -39 48 26 c55 31 59 37 39 63
-12 17 -16 17 -31 5 -14 -12 -20 -10 -46 16 l-29 29 20 70 c12 39 24 79 27 90
6 18 5 18 -28 -2 -27 -17 -38 -34 -52 -80 -38 -121 -51 -132 -62 -53 -4 28
-10 50 -13 50 -13 -1 -83 -71 -102 -103 -15 -24 -20 -50 -20 -106 0 -68 -3
-77 -34 -120 -19 -25 -71 -79 -115 -119 -91 -82 -126 -138 -118 -187 4 -27 90
-165 103 -165 2 0 -3 17 -12 38 -28 65 -27 68 6 12 43 -77 46 -78 77 -48 l27
27 -27 38 -27 37 21 22 21 23 37 -23 c20 -13 41 -21 48 -19 6 2 13 -4 15 -14
3 -10 8 7 12 37 11 76 36 128 84 176 55 55 191 144 292 193 80 38 81 38 95 18
8 -11 12 -23 10 -27 -3 -4 -35 -22 -72 -40 -95 -45 -284 -173 -328 -222 -56
-61 -78 -119 -73 -187 5 -55 4 -57 -46 -117 -28 -34 -56 -70 -62 -80 -10 -17
-15 -11 -45 51 -19 39 -34 71 -34 72 -3 10 -77 -22 -84 -35 -16 -31 -16 -142
0 -153 10 -7 6 -8 -13 -3 -35 8 -35 -1 0 -51 18 -25 36 -40 49 -40 27 -1 56
-27 95 -84 l31 -43 29 31 c16 17 34 31 41 31 7 0 47 -11 90 -25 43 -14 85 -25
95 -25 9 0 29 20 44 44 29 49 22 47 245 82 73 12 116 15 123 8 6 -6 6 -33 0
-74 -5 -36 -12 -157 -16 -270 -6 -202 -6 -206 16 -245 28 -49 50 -75 62 -75 5
0 20 12 34 27 13 14 27 23 31 20 3 -4 12 -2 20 4 7 6 13 8 13 4 0 -3 14 8 31
25 23 23 38 30 54 26 17 -4 25 1 37 28 18 37 48 44 48 12 0 -12 -4 -91 -10
-176 -5 -85 -10 -203 -12 -262 l-3 -108 -60 0 c-33 0 -107 -7 -165 -15 -58 -8
-133 -15 -167 -15 -76 0 -73 -6 -82 179 -5 114 -8 135 -21 132 -120 -32 -293
-40 -423 -20 -66 10 -83 18 -197 95 -69 46 -132 90 -141 97 -19 15 -99 127
-99 139 0 4 20 8 45 8 l45 0 1 -42 2 -43 6 35 7 35 12 -40 c14 -47 29 -72 37
-63 4 3 -1 21 -11 39 -11 23 -13 34 -5 37 6 2 11 25 11 51 0 34 -7 56 -25 81
-26 35 -32 31 -37 -25 -3 -34 -19 -40 -83 -30 -40 5 -45 10 -68 58 -14 29 -23
54 -22 55 8 9 45 -11 45 -23 0 -16 18 -30 27 -21 4 3 -1 14 -10 23 -8 10 -16
23 -16 28 -1 6 -13 13 -27 17 -26 7 -54 26 -54 37 0 3 20 5 45 3 36 -3 45 -1
45 12 0 9 -3 15 -7 15 -29 -5 -81 4 -96 15 -17 13 -17 17 7 77 14 35 30 84 36
109 7 25 20 60 31 78 10 18 19 45 19 60 0 15 12 66 26 115 24 75 34 94 76 135
l49 49 -30 32 c-17 18 -31 42 -31 52 0 10 21 46 48 80 26 33 53 71 59 83 13
24 89 97 166 159 78 63 98 97 104 174 6 85 33 135 105 191 44 34 196 131 206
132 2 0 16 -28 32 -62z m6039 5 c0 -5 -4 -17 -9 -28 -8 -18 -9 -17 -9 8 -1 15
4 27 9 27 6 0 10 -3 9 -7z m-3954 -48 c28 -14 71 -42 97 -62 26 -21 85 -53
130 -71 142 -57 270 -125 311 -164 46 -44 51 -46 42 -18 -3 11 -3 20 2 20 11
0 75 -176 80 -223 3 -23 15 -48 31 -64 l25 -25 -6 -231 c-5 -206 -4 -239 13
-311 24 -97 25 -188 5 -274 -11 -47 -12 -69 -4 -83 14 -26 -3 -169 -27 -230
-10 -24 -40 -73 -66 -107 -27 -35 -57 -81 -68 -103 -11 -21 -44 -62 -74 -91
-29 -29 -61 -69 -71 -88 -37 -71 -98 -141 -155 -175 -56 -34 -211 -166 -300
-255 -53 -54 -86 -65 -235 -80 -60 -7 -186 -25 -280 -41 -93 -16 -182 -29
-196 -29 -23 0 -79 35 -68 43 13 10 99 37 110 35 23 -5 29 96 18 286 -6 98 -9
180 -7 182 9 8 253 45 335 51 l91 6 129 102 c80 64 150 129 188 176 33 40 102
114 154 164 90 87 126 139 116 168 -7 18 29 63 65 82 21 11 30 24 35 55 4 24
3 46 -3 53 -6 7 -13 71 -16 144 -3 74 -10 142 -17 155 -59 112 -150 165 -381
223 -55 14 -80 27 -128 69 -33 28 -71 60 -85 71 -23 18 -25 23 -16 48 6 15 15
27 19 27 13 0 112 -80 112 -90 0 -20 74 -51 176 -75 113 -27 187 -61 262 -122
42 -34 82 -97 82 -128 0 -30 18 -5 25 34 8 47 -8 82 -62 135 -66 65 -160 114
-274 142 -124 31 -126 32 -210 103 -36 31 -74 61 -84 67 -18 10 -15 24 44 267
38 154 67 257 74 257 7 0 35 -11 62 -25z m-1085 -6 c0 -5 -12 -9 -27 -9 -27 1
-27 1 -9 15 19 14 36 12 36 -6z m5027 -15 c-3 -3 -12 -4 -19 -1 -8 3 -5 6 6 6
11 1 17 -2 13 -5z m-5157 -54 c0 -13 7 -20 20 -20 11 0 20 -4 20 -10 0 -5 7
-10 15 -10 8 0 15 5 15 10 0 15 39 12 53 -3 7 -7 25 -27 40 -44 l28 -30 -49 5
c-27 2 -52 0 -55 -5 -3 -4 13 -7 36 -6 36 2 39 1 17 -7 -22 -9 -21 -9 10 -5
19 2 46 7 60 10 21 5 20 4 -5 -8 -16 -8 -47 -17 -67 -21 -21 -4 -40 -11 -43
-17 -8 -12 25 -5 113 23 34 12 65 25 68 29 3 5 10 9 15 9 25 0 -7 -21 -69 -44
-76 -29 -239 -66 -294 -66 -29 0 -36 3 -32 15 4 10 0 15 -11 15 -14 0 -16 5
-10 28 3 15 6 46 5 70 -1 55 7 82 26 82 11 0 14 -6 9 -22 -6 -19 -2 -18 21 9
33 37 64 43 64 13z m5217 -12 c-3 -8 -6 -5 -6 6 -1 11 2 17 5 13 3 -3 4 -12 1
-19z m-5979 -34 c-3 -14 -7 -10 -16 16 -12 32 -11 34 4 19 9 -9 14 -25 12 -35z
m5590 24 c24 -24 13 -55 -34 -97 -25 -22 -42 -42 -38 -42 5 -1 14 -2 19 -4 6
-1 22 -3 38 -3 17 -1 27 -8 27 -17 0 -12 -14 -15 -65 -15 -62 0 -65 1 -65 24
0 15 16 38 45 64 25 22 45 45 45 52 0 8 -14 9 -45 4 -35 -5 -45 -3 -45 8 0 25
23 38 65 38 23 0 46 -5 53 -12z m-3757 -39 c-6 -24 -9 -28 -10 -12 -1 24 9 56
16 50 2 -3 0 -20 -6 -38z m-1207 15 c7 -18 0 -34 -15 -34 -5 0 -9 11 -9 25 0
28 15 34 24 9z m5353 -36 c-2 -13 -4 -5 -4 17 -1 22 1 32 4 23 2 -10 2 -28 0
-40z m-1149 -2 c7 -4 12 -16 12 -27 0 -15 -7 -19 -35 -19 -34 0 -99 36 -90 49
5 9 99 6 113 -3z m-4215 -96 c7 0 6 -4 -3 -10 -13 -8 -12 -10 3 -10 9 0 17 -4
17 -10 0 -5 -9 -10 -20 -10 -17 0 -20 6 -19 38 1 20 3 29 6 20 2 -10 10 -18
16 -18z m6627 10 c0 -5 -18 -10 -40 -10 -22 0 -40 5 -40 10 0 6 18 10 40 10
22 0 40 -4 40 -10z m-1913 -29 c16 -1 23 -8 25 -28 l3 -28 91 -3 91 -3 7 -76
c3 -42 6 -121 6 -176 0 -99 0 -100 34 -138 19 -20 39 -55 45 -75 10 -35 8 -41
-16 -66 -15 -15 -34 -30 -42 -33 -14 -4 -15 -21 -13 -106 3 -63 0 -99 -6 -95
-5 3 -29 8 -52 11 -24 3 -45 6 -46 8 -4 3 -31 177 -28 177 1 0 15 -7 30 -15
16 -8 40 -15 54 -15 21 0 17 4 -18 20 -36 16 -47 29 -65 70 -11 27 -27 50 -35
50 -7 0 -10 5 -7 10 4 6 11 8 16 5 5 -3 22 7 38 22 16 15 40 36 52 45 23 17
23 17 3 18 -12 0 -38 -11 -59 -26 l-37 -25 4 30 c2 16 1 28 -4 25 -4 -3 -8 6
-8 19 0 14 -6 37 -14 52 -8 14 -20 71 -26 125 l-13 97 -44 22 c-24 11 -48 21
-54 21 -5 0 -23 16 -40 35 -30 34 -62 45 -74 25 -3 -5 -10 -10 -16 -10 -13 0
-11 28 3 32 10 4 147 3 215 -1z m-4780 -17 c-3 -3 -12 -4 -19 -1 -8 3 -5 6 6
6 11 1 17 -2 13 -5z m4676 -95 c16 -22 26 -43 22 -47 -4 -4 -14 4 -24 17 -9
13 -31 39 -48 58 -18 19 -33 39 -33 45 0 15 51 -29 83 -73z m-6666 29 c-3 -8
-6 -5 -6 6 -1 11 2 17 5 13 3 -3 4 -12 1 -19z m6609 -9 c28 -23 -1 -212 -47
-301 -18 -34 -20 -51 -14 -108 5 -48 3 -70 -5 -75 -9 -6 -11 44 -6 211 3 121
6 238 6 261 0 42 0 42 27 32 15 -6 33 -15 39 -20z m-5021 -79 c10 -25 25 -61
33 -80 9 -19 17 -44 18 -55 3 -25 -73 135 -82 172 -9 39 8 18 31 -37z m-528
-7 c-3 -10 -5 -4 -5 12 0 17 2 24 5 18 2 -7 2 -21 0 -30z m-7 -67 c0 -6 -3 -6
-9 0 -6 5 -13 29 -16 54 l-5 45 15 -45 c8 -25 15 -49 15 -54z m5622 41 c-5
-20 -6 -20 -13 -1 -11 29 -10 34 5 28 8 -3 12 -13 8 -27z m-5087 -84 c10 -21
58 -121 107 -223 48 -102 88 -191 88 -197 0 -7 -6 -13 -13 -13 -8 0 -30 -17
-50 -37 -20 -21 -49 -48 -65 -60 -36 -27 -145 -83 -163 -83 -8 0 -51 31 -96
70 -76 64 -83 68 -93 51 -5 -11 -10 -28 -11 -38 0 -16 -1 -16 -9 2 -5 13 -3
29 7 45 9 17 4 14 -16 -10 -17 -19 -31 -38 -31 -43 0 -5 -7 -16 -16 -25 -12
-12 -13 -17 -4 -20 9 -3 9 -7 -1 -14 -10 -7 -5 -8 16 -4 25 5 24 2 -11 -13
-23 -11 -45 -25 -49 -31 -4 -7 2 -6 16 3 13 8 36 17 51 21 21 5 28 13 31 39
l4 32 1 -36 c2 -35 0 -37 -54 -58 -88 -34 -96 -28 -73 49 11 35 8 45 -31 129
-23 51 -42 108 -43 128 -1 32 6 43 58 91 90 82 384 276 426 281 4 1 15 -16 24
-36z m5116 -66 c-8 -8 -11 -7 -11 4 0 20 13 34 18 19 3 -7 -1 -17 -7 -23z
m-5781 -16 l20 -30 -36 -40 c-21 -22 -41 -38 -46 -35 -4 3 -15 19 -24 36 -15
30 -15 31 17 64 18 19 36 34 40 34 4 0 17 -13 29 -29z m5803 -17 c-3 -7 2 -26
10 -43 8 -16 11 -35 7 -42 -6 -8 -12 2 -20 30 -6 23 -13 48 -16 55 -3 7 2 13
10 13 8 0 12 -6 9 -13z m-3504 -139 c82 -69 103 -79 231 -105 59 -12 127 -33
155 -48 54 -29 72 -56 116 -164 28 -67 28 -71 13 -101 -23 -44 -63 -97 -75
-97 -9 0 -26 18 -89 93 -18 20 -40 37 -49 37 -10 0 -31 -23 -50 -54 -18 -30
-43 -62 -55 -70 -25 -16 -96 -137 -200 -341 -48 -94 -83 -149 -129 -199 -69
-76 -87 -82 -164 -53 -23 9 -90 24 -150 32 -59 9 -109 18 -111 20 -2 1 8 29
22 62 13 32 58 142 99 243 41 102 103 248 137 325 35 77 77 174 95 215 65 152
118 260 129 260 6 0 40 -25 75 -55z m3541 14 c0 -5 -4 -9 -10 -9 -5 0 -10 7
-10 16 0 8 5 12 10 9 6 -3 10 -10 10 -16z m637 -61 c-3 -8 -6 -5 -6 6 -1 11 2
17 5 13 3 -3 4 -12 1 -19z m-620 -40 c-3 -8 -6 -5 -6 6 -1 11 2 17 5 13 3 -3
4 -12 1 -19z m610 -80 c-3 -7 -5 -2 -5 12 0 14 2 19 5 13 2 -7 2 -19 0 -25z
m-5044 -2 c9 0 17 -5 17 -12 0 -15 -46 -35 -65 -28 -8 4 -15 2 -15 -3 0 -4 -9
-14 -19 -20 -15 -9 -25 -9 -45 0 -31 14 -34 27 -5 27 11 0 17 5 14 10 -3 6
-18 10 -33 10 -16 0 -22 4 -16 9 16 15 47 20 99 14 28 -3 58 -6 68 -7z m-441
-17 c16 -4 16 -7 -5 -31 -17 -21 -33 -28 -74 -31 -29 -3 -53 -1 -53 4 0 5 5 9
11 9 7 0 20 10 30 22 23 25 62 47 69 37 3 -4 13 -8 22 -10z m-792 -54 c0 -7
-14 -31 -31 -55 -17 -23 -35 -55 -41 -71 -12 -34 -23 -37 -38 -10 -18 35 -11
58 37 121 43 57 48 61 60 44 7 -10 13 -23 13 -29z m1047 29 c-3 -3 -12 -4 -19
-1 -8 3 -5 6 6 6 11 1 17 -2 13 -5z m5230 -36 c-3 -7 -5 -2 -5 12 0 14 2 19 5
13 2 -7 2 -19 0 -25z m-5167 -2 c0 -2 -7 -7 -16 -10 -8 -3 -12 -2 -9 4 6 10
25 14 25 6z m110 -10 c0 -3 -4 -8 -10 -11 -5 -3 -10 -1 -10 4 0 6 5 11 10 11
6 0 10 -2 10 -4z m4526 -92 c-3 -9 -6 -20 -6 -25 0 -5 -4 -9 -10 -9 -11 0 -14
33 -3 43 12 13 25 7 19 -9z m-4936 -23 c0 -10 -8 -28 -17 -40 -16 -19 -21 -20
-45 -9 -16 7 -28 19 -28 26 0 6 -7 12 -15 12 -35 0 -11 19 28 23 23 2 50 4 60
5 11 1 17 -5 17 -17z m4120 -35 c0 -8 -4 -18 -10 -21 -5 -3 -10 3 -10 14 0 12
5 21 10 21 6 0 10 -6 10 -14z m1337 -68 c-2 -13 -4 -5 -4 17 -1 22 1 32 4 23
2 -10 2 -28 0 -40z m-600 20 c-3 -8 -6 -5 -6 6 -1 11 2 17 5 13 3 -3 4 -12 1
-19z m233 -48 c0 -26 -2 -28 -22 -21 -31 11 -33 26 -6 39 13 6 24 11 26 11 1
1 2 -12 2 -29z m-5065 -17 c-4 -10 -7 -26 -7 -35 1 -20 -13 -24 -23 -8 -3 6
-22 10 -41 10 -21 0 -34 5 -34 13 0 24 24 37 68 37 38 0 43 -2 37 -17z m162
-79 c-3 -3 -12 -4 -19 -1 -8 3 -5 6 6 6 11 1 17 -2 13 -5z m4630 -56 c-3 -8
-6 -5 -6 6 -1 11 2 17 5 13 3 -3 4 -12 1 -19z m119 15 c-15 -4 -16 -7 -5 -14
11 -7 11 -9 -3 -9 -10 0 -18 7 -18 15 0 9 9 15 23 14 19 -1 19 -2 3 -6z m-26
-72 c-37 -10 -33 -44 5 -52 24 -5 26 -7 7 -8 -13 0 -20 -5 -17 -11 4 -6 12 -8
18 -4 7 3 3 -2 -7 -10 -11 -9 -23 -16 -28 -16 -4 0 -8 -5 -8 -11 0 -5 4 -8 9
-5 16 10 31 -21 37 -79 7 -65 0 -75 -53 -75 -42 0 -53 21 -53 103 0 46 4 68
15 77 9 7 14 19 11 27 -3 7 1 13 9 13 14 0 20 13 16 34 -3 13 20 26 44 25 16
-1 15 -2 -5 -8z m-4689 -30 c-8 -5 -10 -14 -6 -22 6 -9 4 -11 -7 -6 -9 3 -21
0 -27 -6 -8 -8 -11 -8 -11 2 0 17 29 40 50 41 12 0 13 -2 1 -9z m-1451 -113
c0 -10 -4 -18 -9 -18 -11 0 -21 25 -21 53 1 22 1 22 15 3 8 -11 15 -28 15 -38z
m1933 -203 c-3 -9 -8 -14 -10 -11 -3 3 -2 9 2 15 9 16 15 13 8 -4z m-106 -111
c-3 -3 -12 -4 -19 -1 -8 3 -5 6 6 6 11 1 17 -2 13 -5z m-64 -11 c-7 -2 -19 -2
-25 0 -7 3 -2 5 12 5 14 0 19 -2 13 -5z m34 -19 c-3 -3 -12 -4 -19 -1 -8 3 -5
6 6 6 11 1 17 -2 13 -5z m98 -24 c18 -8 18 -9 -5 -9 -14 0 -32 4 -40 9 -12 8
-12 10 5 9 11 0 29 -4 40 -9z m-305 -75 c0 -33 -72 -77 -93 -56 -11 11 3 27
48 53 18 10 19 10 6 -5 -14 -18 -5 -22 18 -8 7 5 10 14 7 20 -4 6 -2 11 3 11
6 0 11 -7 11 -15z m317 -11 c-3 -3 -12 -4 -19 -1 -8 3 -5 6 6 6 11 1 17 -2 13
-5z m-634 -66 c-3 -29 -10 -60 -15 -68 -8 -15 -2 64 9 103 9 33 12 17 6 -35z
m607 42 c0 -5 -8 -10 -17 -10 -15 0 -16 2 -3 10 19 12 20 12 20 0z m129 -24
c-1 -16 -2 -17 -6 -3 -2 9 -9 17 -14 17 -5 0 -9 4 -9 10 0 5 7 7 15 4 8 -4 14
-16 14 -28z m-106 -3 c-7 -2 -13 -9 -13 -15 0 -5 -9 -21 -20 -35 -13 -17 -18
-34 -14 -49 4 -17 1 -26 -11 -30 -22 -9 -71 9 -67 24 1 7 -5 12 -13 12 -8 0
-15 6 -15 14 0 8 -7 16 -15 20 -13 5 -13 9 -3 26 7 11 18 20 25 20 7 0 13 4
13 8 0 4 33 8 73 9 39 1 66 -1 60 -4z m-193 -28 c0 -16 -35 -21 -44 -6 -8 12
4 21 26 21 10 0 18 -7 18 -15z m-45 -131 l40 -15 -35 6 c-19 3 -39 10 -44 15
-13 13 -8 12 39 -6z m223 -76 c30 0 28 -16 -3 -24 -14 -3 -25 -10 -25 -15 0
-13 -68 -11 -76 3 -11 17 36 51 60 43 12 -4 31 -7 44 -7z m-297 -22 c9 5 71
-25 77 -38 2 -5 12 -8 22 -8 20 0 44 -25 36 -38 -6 -11 -66 -3 -66 9 0 4 -16
11 -35 15 -21 4 -37 13 -40 25 -4 11 -11 17 -16 14 -11 -7 -11 -3 -2 21 4 11
8 13 11 6 2 -7 8 -10 13 -6z m-6 -156 c-3 -5 -12 -10 -18 -10 -7 0 -6 4 3 10
19 12 23 12 15 0z m175 -40 c13 -8 12 -10 -2 -10 -10 0 -18 -7 -18 -16 0 -10
-5 -14 -16 -10 -8 3 -12 2 -9 -4 6 -9 -10 -12 -80 -14 -16 0 -33 -5 -37 -11
-5 -6 -8 -6 -8 2 0 6 9 18 21 27 20 13 20 14 2 19 -17 4 5 6 77 7 16 1 32 5
35 10 8 12 16 12 35 0z m3557 -112 c-3 -8 -6 -5 -6 6 -1 11 2 17 5 13 3 -3 4
-12 1 -19z m-6587 -782 c0 -3 -4 -8 -10 -11 -5 -3 -10 -1 -10 4 0 6 5 11 10
11 6 0 10 -2 10 -4z m0 -376 c0 -5 -4 -10 -10 -10 -5 0 -10 5 -10 10 0 6 5 10
10 10 6 0 10 -4 10 -10z m0 -65 c0 -8 -4 -17 -10 -20 -6 -4 -10 5 -10 20 0 15
4 24 10 20 6 -3 10 -12 10 -20z m9 -457 c1 -20 -3 -39 -8 -42 -12 -8 -18 31
-12 84 4 39 5 41 12 20 4 -14 7 -42 8 -62z m4318 -70 c-3 -8 -6 -5 -6 6 -1 11
2 17 5 13 3 -3 4 -12 1 -19z m-4317 -8 c0 -5 -4 -10 -10 -10 -5 0 -10 5 -10
10 0 6 5 10 10 10 6 0 10 -4 10 -10z m4351 -90 c6 0 7 -5 3 -11 -9 -15 -24 9
-22 36 1 17 1 17 5 -2 2 -13 9 -23 14 -23z m2216 -62 c-2 -13 -4 -3 -4 22 0
25 2 35 4 23 2 -13 2 -33 0 -45z m0 -145 c-2 -16 -4 -3 -4 27 0 30 2 43 4 28
2 -16 2 -40 0 -55z m-6568 -20 c0 -25 -1 -25 -8 -8 -5 11 -7 23 -4 28 8 14 13
7 12 -20z m-12 -855 c-3 -8 -6 -5 -6 6 -1 11 2 17 5 13 3 -3 4 -12 1 -19z
m3113 -1 c0 -9 -12 -11 -40 -9 -56 6 -61 22 -6 22 31 0 46 -4 46 -13z m75 4
c3 -5 1 -12 -5 -16 -5 -3 -10 1 -10 9 0 18 6 21 15 7z m91 -28 c3 -12 4 -28 1
-35 -3 -7 -6 -1 -6 15 -1 23 -5 27 -30 27 -17 0 -33 5 -36 10 -4 6 8 9 30 8
27 -2 37 -8 41 -25z m-165 -159 c-5 -36 -9 -47 -10 -27 0 17 -7 34 -13 36 -9
4 -10 8 -2 14 6 4 14 17 17 27 13 34 17 11 8 -50z m137 60 c25 -7 30 -24 7
-24 -8 0 -25 -11 -38 -24 -14 -14 -28 -22 -31 -19 -3 4 -6 -2 -6 -13 0 -15 7
-19 38 -19 20 0 47 6 60 13 19 11 22 10 22 -6 0 -15 -12 -20 -65 -28 l-65 -10
0 68 c0 68 0 68 28 68 15 0 37 -3 50 -6z m39 -16 c-3 -8 -6 -5 -6 6 -1 11 2
17 5 13 3 -3 4 -12 1 -19z m-407 -18 c0 -5 -9 -10 -19 -10 -11 0 -23 5 -26 10
-4 6 5 10 19 10 14 0 26 -4 26 -10z m-67 -27 c-7 -2 -13 -9 -13 -15 0 -6 40
-9 109 -6 60 1 107 0 104 -4 -2 -5 13 -9 34 -9 38 -1 38 -1 -9 -9 -26 -5 -117
-8 -203 -8 -128 0 -157 3 -162 15 -3 8 0 20 6 26 10 9 12 9 9 -3 -4 -20 53
-15 67 6 5 8 23 14 40 13 16 0 24 -3 18 -6z m277 -15 c0 -4 -12 -8 -27 -8 -19
0 -24 3 -15 8 17 11 42 11 42 0z m-2190 -69 c0 -5 -7 -9 -15 -9 -8 0 -15 7
-15 15 0 9 6 12 15 9 8 -4 15 -10 15 -15z m1981 -16 l34 -18 -103 -3 c-56 -1
-110 2 -120 7 -13 8 -4 11 38 11 30 0 62 5 70 10 22 14 43 12 81 -7z m157 10
c-10 -2 -28 -2 -40 0 -13 2 -5 4 17 4 22 1 32 -1 23 -4z m52 -3 c0 -5 -7 -10
-16 -10 -8 0 -12 5 -9 10 3 6 10 10 16 10 5 0 9 -4 9 -10z m147 -26 c-3 -3
-12 -4 -19 -1 -8 3 -5 6 6 6 11 1 17 -2 13 -5z m-122 -13 c3 -5 1 -12 -5 -16
-5 -3 -10 1 -10 9 0 18 6 21 15 7z m67 -157 c0 -30 -3 -58 -6 -61 -3 -4 -6 24
-6 62 0 38 3 65 7 62 3 -4 6 -32 5 -63z m-367 36 c8 -13 -5 -13 -25 0 -13 8
-13 10 2 10 9 0 20 -4 23 -10z m15 -30 c0 -5 -5 -10 -11 -10 -5 0 -7 5 -4 10
3 6 8 10 11 10 2 0 4 -4 4 -10z m285 -25 c-2 -34 -15 -45 -15 -12 0 19 -6 27
-22 30 -18 3 -16 5 7 6 27 1 31 -2 30 -24z m172 -15 c15 -9 12 -10 -16 -6 -18
3 -43 6 -55 6 -17 0 -18 2 -6 10 17 11 51 7 77 -10z m-373 -15 c4 -12 -3 -15
-34 -15 -38 0 -49 8 -33 23 12 13 61 7 67 -8z m-104 -5 c0 -5 -2 -10 -4 -10
-3 0 -8 5 -11 10 -3 6 -1 10 4 10 6 0 11 -4 11 -10z m150 -42 c0 -5 -25 -8
-55 -6 -65 4 -73 16 -12 20 48 4 67 0 67 -14z m105 -8 c-3 -5 -16 -10 -28 -10
-18 0 -19 2 -7 10 20 13 43 13 35 0z m-75 -10 c0 -5 -4 -10 -10 -10 -5 0 -10
5 -10 10 0 6 5 10 10 10 6 0 10 -4 10 -10z m23 -47 c-7 -2 -19 -2 -25 0 -7 3
-2 5 12 5 14 0 19 -2 13 -5z m-3003 -22 c0 -20 -13 -41 -21 -35 -15 9 -10 44
6 44 8 0 15 -4 15 -9z m50 -10 c0 -6 -4 -12 -8 -15 -5 -3 -9 1 -9 9 0 8 4 15
9 15 4 0 8 -4 8 -9z m2582 -88 c-6 -2 -10 -9 -7 -13 3 -5 1 -11 -5 -15 -5 -3
-10 0 -10 8 0 17 10 27 24 26 6 0 5 -3 -2 -6z m371 0 c-7 -2 -19 -2 -25 0 -7
3 -2 5 12 5 14 0 19 -2 13 -5z m-309 -18 c-4 -11 0 -15 16 -15 15 0 20 -5 17
-14 -3 -8 1 -17 9 -20 8 -3 14 -1 14 4 0 12 53 40 75 40 8 0 15 -7 15 -15 0
-15 4 -17 51 -20 14 -1 31 -5 37 -9 6 -3 12 -1 14 5 2 7 24 11 52 11 59 -2 75
-12 20 -13 -28 0 -34 -2 -20 -8 18 -7 18 -8 2 -14 -10 -4 -26 -7 -37 -7 -10 0
-19 -4 -19 -8 0 -5 -10 -14 -22 -20 -18 -8 -19 -11 -6 -11 11 -1 15 -6 11 -16
-3 -9 -2 -15 3 -14 28 5 67 -2 58 -11 -10 -10 -90 6 -111 22 -7 5 -16 7 -21 4
-6 -3 -15 1 -22 9 -7 8 -20 15 -29 15 -9 0 -27 7 -39 16 -12 8 -22 11 -22 6 0
-5 -11 -12 -25 -14 -14 -3 -25 -2 -25 1 0 3 -12 7 -26 7 -30 2 -38 9 -29 24 5
8 11 8 21 -1 8 -6 14 -9 14 -6 0 3 3 12 6 21 5 12 -1 16 -23 16 -16 0 -35 -6
-42 -12 -11 -11 -13 -10 -9 2 2 8 20 20 38 26 19 6 36 16 38 23 2 6 8 11 13
11 4 0 6 -7 3 -15z m3813 -97 c-2 -24 -4 -7 -4 37 0 44 2 63 4 43 2 -21 2 -57
0 -80z m-3627 76 c0 -2 -7 -4 -15 -4 -8 0 -15 4 -15 10 0 5 7 7 15 4 8 -4 15
-8 15 -10z m57 0 c-3 -3 -12 -4 -19 -1 -8 3 -5 6 6 6 11 1 17 -2 13 -5z
m-2888 -104 c2 -90 2 -91 -18 -80 -17 9 -19 15 -11 30 5 10 10 48 10 85 0 99
16 70 19 -35z m3251 50 c-12 -8 -12 -10 -1 -10 11 0 10 -5 -4 -20 -13 -15 -31
-20 -67 -20 -26 0 -48 5 -48 10 0 6 15 10 33 10 40 0 66 14 43 23 -9 4 -16 2
-16 -3 0 -6 -7 -10 -15 -10 -16 0 -20 12 -8 23 3 4 27 7 52 7 33 0 42 -3 31
-10z m-210 -38 c0 -4 -16 -8 -35 -9 -19 -1 -32 3 -29 8 7 11 64 12 64 1z m267
2 c-3 -3 -12 -4 -19 -1 -8 3 -5 6 6 6 11 1 17 -2 13 -5z m-632 -14 c3 -5 -1
-10 -9 -10 -9 0 -16 5 -16 10 0 6 4 10 9 10 6 0 13 -4 16 -10z m-60 -10 c3 -5
1 -10 -4 -10 -6 0 -11 5 -11 10 0 6 2 10 4 10 3 0 8 -4 11 -10z m222 -24 c32
-33 26 -62 -15 -74 -26 -8 -34 -8 -39 4 -3 8 -14 14 -25 14 -10 0 -16 -4 -13
-10 10 -16 -12 -12 -29 5 -8 8 -19 15 -25 15 -6 0 -11 5 -11 10 0 6 9 10 20
10 11 0 20 6 20 14 0 28 50 34 76 9 16 -16 16 -16 10 5 -9 28 3 28 31 -2z
m-232 -6 c3 -5 1 -10 -4 -10 -6 0 -11 5 -11 10 0 6 2 10 4 10 3 0 8 -4 11 -10z
m430 0 c3 -5 -1 -10 -9 -10 -8 0 -18 5 -21 10 -3 6 1 10 9 10 8 0 18 -4 21
-10z m-390 -10 c3 -6 -1 -7 -9 -4 -18 7 -21 14 -7 14 6 0 13 -4 16 -10z
m-2645 -191 c0 -33 -4 -59 -10 -59 -6 0 -10 29 -10 66 0 41 4 63 10 59 6 -3
10 -33 10 -66z m3000 22 c0 -17 -21 -24 -74 -27 -28 -1 -56 -3 -62 -3 -6 -1
-21 -10 -34 -21 -26 -23 -40 -25 -40 -8 0 9 -3 9 -12 0 -17 -17 -47 -15 -54 3
-5 11 -21 15 -60 15 -30 0 -54 5 -54 10 0 11 31 13 173 11 49 -1 86 3 83 7 -3
5 19 7 48 4 33 -3 56 0 60 7 9 13 26 15 26 2z m19 -50 c18 -12 3 -17 -44 -15
-88 3 -82 9 20 22 6 1 16 -2 24 -7z m-134 -11 c3 -5 -3 -10 -14 -10 -11 0 -23
5 -26 10 -3 6 3 10 14 10 11 0 23 -4 26 -10z m-2037 -12 c-2 -6 -10 -14 -16
-16 -7 -2 -10 2 -6 12 7 18 28 22 22 4z m1921 -45 c9 -15 12 -16 20 -4 12 19
83 23 135 10 29 -8 36 -13 25 -20 -8 -5 -9 -9 -4 -9 6 0 3 -5 -5 -9 -16 -10
-65 -8 -91 3 -8 4 -28 2 -43 -4 -15 -5 -32 -8 -37 -4 -5 3 -9 -2 -9 -10 0 -9
-3 -15 -7 -15 -5 1 -10 0 -13 -1 -3 -1 -18 -4 -33 -6 -21 -4 -28 -1 -25 8 3 7
17 13 31 13 14 1 29 4 33 8 11 11 -51 8 -81 -3 -17 -7 -24 -7 -20 0 3 6 -1 13
-9 16 -9 3 -16 12 -16 20 0 9 17 14 53 17 28 2 60 4 69 5 9 1 22 -6 27 -15z
m-2765 -232 c-7 -8 -27 55 -26 84 0 17 1 54 1 83 1 104 16 75 22 -43 4 -66 5
-122 3 -124z m2811 139 c17 0 17 -2 5 -10 -19 -12 -67 -13 -74 -1 -9 13 7 23
29 17 11 -3 29 -6 40 -6z m108 -47 c-7 -2 -19 -2 -25 0 -7 3 -2 5 12 5 14 0
19 -2 13 -5z m177 -194 c0 -13 -12 -17 -69 -20 -36 -3 -56 0 -58 8 -3 7 10 13
34 15 71 6 93 5 93 -3z m-190 -49 c0 -5 -4 -10 -10 -10 -5 0 -10 5 -10 10 0 6
5 10 10 10 6 0 10 -4 10 -10z m3550 -91 c0 -5 -4 -9 -10 -9 -5 0 -10 7 -10 16
0 8 5 12 10 9 6 -3 10 -10 10 -16z m-9130 -149 c0 -5 -9 -10 -19 -10 -11 0
-23 5 -26 10 -4 6 5 10 19 10 14 0 26 -4 26 -10z m7297 -152 c-3 -8 -6 -5 -6
6 -1 11 2 17 5 13 3 -3 4 -12 1 -19z m-970 -40 c-3 -8 -6 -5 -6 6 -1 11 2 17
5 13 3 -3 4 -12 1 -19z m980 -20 c-3 -7 -5 -2 -5 12 0 14 2 19 5 13 2 -7 2
-19 0 -25z m2436 -25 c-13 -2 -33 -2 -45 0 -13 2 -3 4 22 4 25 0 35 -2 23 -4z
m-1633 -58 c0 -8 -9 -15 -20 -15 -20 0 -26 11 -13 23 12 13 33 7 33 -8z m-90
-35 c0 -5 -7 -10 -16 -10 -8 0 -12 5 -9 10 3 6 10 10 16 10 5 0 9 -4 9 -10z
m-3600 -46 c0 -8 -27 -30 -55 -45 -13 -8 -10 -1 9 20 28 29 46 39 46 25z
m2010 -62 c0 -4 -9 7 -20 23 -11 17 -20 35 -20 40 0 6 9 -5 20 -23 11 -18 20
-36 20 -40z m-2098 -34 c-9 -18 -18 -35 -19 -37 -2 -2 -6 -2 -9 2 -7 7 27 67
38 67 4 0 -1 -15 -10 -32z m2105 -20 c-3 -7 -5 -2 -5 12 0 14 2 19 5 13 2 -7
2 -19 0 -25z m0 -55 c-3 -10 -5 -4 -5 12 0 17 2 24 5 18 2 -7 2 -21 0 -30z
m4613 17 c0 -5 -2 -10 -4 -10 -3 0 -8 5 -11 10 -3 6 -1 10 4 10 6 0 11 -4 11
-10z m-1730 -25 c0 -9 -9 -15 -25 -15 -16 0 -25 6 -25 15 0 9 9 15 25 15 16 0
25 -6 25 -15z m-4323 -37 c-3 -8 -6 -5 -6 6 -1 11 2 17 5 13 3 -3 4 -12 1 -19z
m-2287 -52 c0 -3 -4 -8 -10 -11 -5 -3 -10 -1 -10 4 0 6 5 11 10 11 6 0 10 -2
10 -4z m-43 -12 c-3 -3 -12 -4 -19 -1 -8 3 -5 6 6 6 11 1 17 -2 13 -5z m-2750
-70 c-3 -3 -12 -4 -19 -1 -8 3 -5 6 6 6 11 1 17 -2 13 -5z m710 0 c-3 -3 -12
-4 -19 -1 -8 3 -5 6 6 6 11 1 17 -2 13 -5z m-532 -14 c8 -13 -5 -13 -25 0 -13
8 -13 10 2 10 9 0 20 -4 23 -10z m6660 -142 c8 -10 10 -20 5 -23 -4 -3 -18 10
-29 29 -24 38 -28 61 -5 31 8 -11 21 -28 29 -37z"/>
<path d="M7686 13582 c-3 -5 8 -9 25 -10 16 0 27 4 24 9 -8 11 -42 12 -49 1z"/>
<path d="M7560 13570 c-21 -13 -10 -18 32 -12 21 2 35 8 32 13 -7 12 -45 11
-64 -1z"/>
<path d="M7655 13570 c-3 -5 -1 -10 4 -10 6 0 11 5 11 10 0 6 -2 10 -4 10 -3
0 -8 -4 -11 -10z"/>
<path d="M5596 13542 c-7 -12 154 -19 314 -13 91 4 93 4 40 11 -75 11 -348 12
-354 2z"/>
<path d="M7650 13476 c14 -8 28 -12 33 -9 11 7 7 9 -28 17 l-30 6 25 -14z"/>
<path d="M6130 10200 c0 -19 3 -21 12 -12 9 9 9 15 0 24 -9 9 -12 7 -12 -12z"/>
<path d="M5706 10301 c-3 -5 1 -11 9 -15 8 -3 15 -1 15 4 0 13 -18 22 -24 11z"/>
<path d="M7929 9132 c8 -6 9 -11 2 -13 -6 -2 27 -5 72 -5 92 -2 79 10 -23 20
-41 5 -60 4 -51 -2z"/>
<path d="M8095 9130 c-3 -5 1 -10 10 -10 9 0 13 5 10 10 -3 6 -8 10 -10 10 -2
0 -7 -4 -10 -10z"/>
<path d="M8160 9119 c0 -5 5 -7 10 -4 6 3 10 8 10 11 0 2 -4 4 -10 4 -5 0 -10
-5 -10 -11z"/>
<path d="M7720 9080 c0 -5 5 -10 10 -10 6 0 10 5 10 10 0 6 -4 10 -10 10 -5 0
-10 -4 -10 -10z"/>
<path d="M7660 8628 c0 -8 40 -78 45 -78 2 0 1 8 -1 18 -5 18 -43 72 -44 60z"/>
<path d="M3670 8751 c0 -12 5 -21 10 -21 6 0 10 6 10 14 0 8 -4 18 -10 21 -5
3 -10 -3 -10 -14z"/>
<path d="M4598 8683 c-38 -64 -58 -108 -58 -126 0 -7 10 4 21 23 12 19 29 46
39 60 18 27 42 91 37 97 -2 2 -20 -23 -39 -54z"/>
<path d="M3465 8650 c-3 -5 -1 -10 4 -10 6 0 11 5 11 10 0 6 -2 10 -4 10 -3 0
-8 -4 -11 -10z"/>
<path d="M7060 9494 c0 -27 20 -54 40 -54 24 0 26 18 4 48 -18 25 -44 29 -44
6z"/>
<path d="M7115 9420 c3 -5 0 -10 -7 -10 -9 0 -9 -3 2 -10 23 -15 29 -12 23 10
-3 11 -10 20 -15 20 -5 0 -6 -4 -3 -10z"/>
<path d="M10861 9351 c-1 -24 2 -32 9 -25 7 7 7 19 1 35 -9 23 -10 22 -10 -10z"/>
<path d="M10887 9373 c-3 -5 6 -9 20 -10 19 -1 22 1 12 8 -17 11 -26 11 -32 2z"/>
<path d="M10860 9269 c0 -5 5 -7 10 -4 6 3 10 8 10 11 0 2 -4 4 -10 4 -5 0
-10 -5 -10 -11z"/>
<path d="M10935 8410 c-3 -5 1 -10 10 -10 9 0 13 5 10 10 -3 6 -8 10 -10 10
-2 0 -7 -4 -10 -10z"/>
<path d="M9101 8904 c0 -11 3 -14 6 -6 3 7 2 16 -1 19 -3 4 -6 -2 -5 -13z"/>
<path d="M4447 6976 c-10 -69 1 -107 33 -119 15 -6 35 -23 44 -39 20 -32 41
-38 32 -8 -20 65 -22 60 27 60 46 0 57 -10 57 -51 0 -31 30 -23 31 9 1 26 1
26 8 3 7 -27 33 -40 69 -33 22 4 24 8 18 41 -3 20 -9 60 -12 88 -4 29 -14 58
-22 65 -19 17 -181 15 -212 -2 -21 -11 -22 -17 -17 -74 8 -73 -5 -57 -23 29
-17 78 -26 86 -33 31z m181 -38 c-3 -32 -5 -33 -50 -36 -40 -3 -47 0 -53 18
-10 32 12 46 78 49 26 1 28 -2 25 -31z m107 -34 c5 -51 4 -69 -7 -75 -22 -14
-35 12 -42 79 -7 61 -7 62 17 62 23 0 25 -5 32 -66z m-68 -11 c-3 -10 -5 -2
-5 17 0 19 2 27 5 18 2 -10 2 -26 0 -35z m-187 2 c0 -5 -5 -3 -10 5 -5 8 -10
20 -10 25 0 6 5 3 10 -5 5 -8 10 -19 10 -25z"/>
<path d="M7090 8448 c-17 -45 -43 -106 -56 -137 -23 -52 -24 -56 -8 -68 31
-22 40 -15 63 52 13 36 25 64 27 62 2 -2 -3 -40 -12 -85 -14 -66 -14 -85 -4
-97 20 -24 38 -18 56 18 44 85 104 167 124 167 11 0 20 -2 20 -5 0 -3 -32 -53
-70 -111 -47 -69 -66 -106 -58 -109 7 -2 51 -13 98 -25 127 -30 223 -81 302
-160 63 -63 67 -65 73 -43 3 13 3 28 0 32 -2 5 5 30 16 56 25 56 16 88 -38
136 -21 18 -33 36 -29 44 8 23 37 18 69 -12 l28 -28 -3 40 c-5 64 -81 117
-291 204 -94 39 -174 68 -178 64 -4 -5 -19 -32 -34 -60 -14 -29 -27 -53 -28
-53 -1 0 -1 39 1 87 3 79 1 89 -16 100 -18 11 -22 6 -52 -69z m393 -165 c31
-14 57 -27 57 -29 0 -2 -9 -20 -19 -39 -26 -48 -18 -69 45 -117 55 -41 63 -55
43 -75 -9 -9 -25 -2 -63 26 -64 48 -134 83 -208 107 -32 10 -58 21 -58 24 0 4
9 15 20 25 19 17 22 17 77 -3 58 -21 58 -21 78 -2 23 24 17 31 -47 55 -49 18
-52 22 -42 50 8 20 33 15 117 -22z"/>
<path d="M6355 5991 c-3 -5 -2 -12 3 -15 5 -3 9 1 9 9 0 17 -3 19 -12 6z"/>
<path d="M6405 5990 c-4 -6 -12 -7 -18 -4 -8 5 -8 2 1 -7 10 -11 15 -10 29 4
10 10 12 17 6 17 -7 0 -15 -5 -18 -10z"/>
<path d="M5870 8549 c0 -5 5 -7 10 -4 6 3 10 8 10 11 0 2 -4 4 -10 4 -5 0 -10
-5 -10 -11z"/>
<path d="M5839 8387 c4 -4 18 -3 32 2 23 9 22 9 -8 8 -18 -1 -28 -6 -24 -10z"/>
<path d="M10547 8063 c-25 -24 30 -36 98 -20 l50 11 -45 7 c-59 10 -95 11
-103 2z"/>
<path d="M10628 7900 c-48 -49 -35 -119 25 -139 45 -15 81 -1 102 38 24 47 20
88 -11 108 -43 28 -83 25 -116 -7z m87 -33 c18 -43 10 -51 -42 -45 -23 2 -28
7 -25 28 3 32 32 74 42 64 5 -5 16 -26 25 -47z"/>
<path d="M4965 7640 c-3 -5 -3 -14 0 -20 3 -5 1 -10 -5 -10 -6 0 -8 -5 -5 -11
8 -11 34 18 35 39 0 14 -16 16 -25 2z"/>
<path d="M5568 7653 c6 -2 18 -2 25 0 6 3 1 5 -13 5 -14 0 -19 -2 -12 -5z"/>
<path d="M5575 7630 c-19 -8 -19 -9 3 -9 12 -1 22 4 22 9 0 6 -1 10 -2 9 -2 0
-12 -4 -23 -9z"/>
<path d="M6195 6480 c-8 -13 15 -24 27 -12 6 6 4 11 -6 15 -8 3 -18 2 -21 -3z"/>
<path d="M6258 6483 c7 -3 16 -2 19 1 4 3 -2 6 -13 5 -11 0 -14 -3 -6 -6z"/>
<path d="M6050 5999 c0 -5 5 -7 10 -4 6 3 10 8 10 11 0 2 -4 4 -10 4 -5 0 -10
-5 -10 -11z"/>
<path d="M5848 2773 c6 -2 18 -2 25 0 6 3 1 5 -13 5 -14 0 -19 -2 -12 -5z"/>
<path d="M5950 2191 c0 -6 5 -13 10 -16 6 -3 10 1 10 9 0 9 -4 16 -10 16 -5 0
-10 -4 -10 -9z"/>
<path d="M5978 2153 c7 -3 16 -2 19 1 4 3 -2 6 -13 5 -11 0 -14 -3 -6 -6z"/>
<path d="M6010 2150 c0 -5 12 -10 26 -10 14 0 23 4 19 10 -3 6 -15 10 -26 10
-10 0 -19 -4 -19 -10z"/>
<path d="M12325 15190 c-3 -5 -2 -10 4 -10 5 0 13 5 16 10 3 6 2 10 -4 10 -5
0 -13 -4 -16 -10z"/>
<path d="M12170 15165 c0 -8 7 -15 15 -15 8 0 15 7 15 15 0 8 -7 15 -15 15 -8
0 -15 -7 -15 -15z"/>
<path d="M12240 15109 c0 -5 4 -8 9 -5 5 4 11 1 13 -6 3 -8 7 -6 11 5 5 12 1
17 -13 17 -11 0 -20 -5 -20 -11z"/>
<path d="M11702 14074 c4 -21 22 -23 26 -1 2 10 -3 17 -13 17 -10 0 -15 -6
-13 -16z"/>
<path d="M11683 13960 c0 -25 2 -35 4 -22 2 12 2 32 0 45 -2 12 -4 2 -4 -23z"/>
<path d="M11680 13669 c0 -5 5 -7 10 -4 6 3 10 8 10 11 0 2 -4 4 -10 4 -5 0
-10 -5 -10 -11z"/>
<path d="M11334 13456 c-8 -21 -1 -49 14 -54 8 -2 12 8 12 32 0 36 -16 49 -26
22z"/>
<path d="M11180 13400 c0 -22 5 -40 10 -40 6 0 10 18 10 40 0 22 -4 40 -10 40
-5 0 -10 -18 -10 -40z"/>
<path d="M11282 13385 c0 -16 2 -22 5 -12 2 9 2 23 0 30 -3 6 -5 -1 -5 -18z"/>
<path d="M10880 13320 c0 -22 5 -40 10 -40 6 0 10 -18 10 -40 0 -33 3 -40 20
-40 17 0 20 7 20 40 0 33 -3 40 -20 40 -17 0 -20 7 -20 40 0 22 -4 40 -10 40
-5 0 -10 -18 -10 -40z"/>
<path d="M11100 13240 c0 -22 5 -40 10 -40 6 0 10 18 10 40 0 22 -4 40 -10 40
-5 0 -10 -18 -10 -40z"/>
<path d="M11180 13240 c0 -22 5 -40 10 -40 6 0 10 18 10 40 0 22 -4 40 -10 40
-5 0 -10 -18 -10 -40z"/>
<path d="M11070 13160 c0 -22 5 -40 10 -40 6 0 10 18 10 40 0 22 -4 40 -10 40
-5 0 -10 -18 -10 -40z"/>
<path d="M11200 12970 c0 -5 7 -10 16 -10 8 0 12 5 9 10 -3 6 -10 10 -16 10
-5 0 -9 -4 -9 -10z"/>
<path d="M11340 12900 c-9 -16 -8 -20 5 -20 8 0 15 9 15 20 0 11 -2 20 -5 20
-2 0 -9 -9 -15 -20z"/>
<path d="M10625 11850 c-3 -5 -1 -10 4 -10 6 0 11 5 11 10 0 6 -2 10 -4 10 -3
0 -8 -4 -11 -10z"/>
<path d="M12352 11349 c2 -6 8 -10 13 -10 5 0 11 4 13 10 2 6 -4 11 -13 11 -9
0 -15 -5 -13 -11z"/>
<path d="M12645 11210 c3 -5 17 -10 31 -10 13 0 24 5 24 10 0 6 -14 10 -31 10
-17 0 -28 -4 -24 -10z"/>
<path d="M11553 10445 c0 -22 2 -30 4 -17 2 12 2 30 0 40 -3 9 -5 -1 -4 -23z"/>
<path d="M11492 10143 c5 -25 28 -28 28 -4 0 12 -6 21 -16 21 -9 0 -14 -7 -12
-17z"/>
<path d="M11150 9960 c0 -22 5 -40 10 -40 6 0 10 18 10 40 0 22 -4 40 -10 40
-5 0 -10 -18 -10 -40z"/>
<path d="M11420 9960 c0 -22 5 -40 10 -40 6 0 10 18 10 40 0 22 -4 40 -10 40
-5 0 -10 -18 -10 -40z"/>
<path d="M7896 775 c-7 -19 3 -47 15 -39 5 3 9 14 9 24 0 24 -16 34 -24 15z"/>
<path d="M8575 620 c-3 -5 3 -10 14 -10 12 0 21 5 21 10 0 6 -6 10 -14 10 -8
0 -18 -4 -21 -10z"/>
<path d="M8480 610 c0 -5 7 -10 15 -10 8 0 15 5 15 10 0 6 -7 10 -15 10 -8 0
-15 -4 -15 -10z"/>
<path d="M8530 616 c0 -2 7 -6 15 -10 8 -3 15 -1 15 4 0 6 -7 10 -15 10 -8 0
-15 -2 -15 -4z"/>
<path d="M8260 595 c0 -10 83 -25 103 -19 19 7 16 9 -18 15 -47 9 -85 11 -85
4z"/>
<path d="M9555 570 c-3 -5 -1 -10 4 -10 6 0 11 5 11 10 0 6 -2 10 -4 10 -3 0
-8 -4 -11 -10z"/>
<path d="M11040 560 c0 -5 12 -10 28 -10 21 0 24 2 12 10 -20 13 -40 13 -40 0z"/>
<path d="M5320 525 c0 -5 5 -17 10 -25 5 -8 10 -10 10 -5 0 6 -5 17 -10 25 -5
8 -10 11 -10 5z"/>
<path d="M10400 520 c0 -5 5 -10 10 -10 6 0 10 5 10 10 0 6 -4 10 -10 10 -5 0
-10 -4 -10 -10z"/>
<path d="M9457 513 c-12 -11 -8 -23 8 -23 8 0 15 7 15 15 0 16 -12 20 -23 8z"/>
<path d="M5010 500 c0 -5 4 -10 9 -10 6 0 13 5 16 10 3 6 -1 10 -9 10 -9 0
-16 -4 -16 -10z"/>
<path d="M5071 464 c0 -11 3 -14 6 -6 3 7 2 16 -1 19 -3 4 -6 -2 -5 -13z"/>
<path d="M2883 448 c-29 -14 -29 -26 -1 -49 27 -24 35 -24 49 2 8 17 8 23 -1
29 -7 4 -9 13 -6 19 9 14 -12 13 -41 -1z"/>
<path d="M2975 450 c-3 -5 -11 -8 -16 -5 -16 10 -10 -11 10 -34 24 -28 78 -45
78 -25 0 8 -9 14 -20 14 -37 0 -9 12 44 19 29 3 54 12 57 19 2 6 -1 12 -8 12
-6 0 -8 -4 -5 -10 11 -17 -96 -12 -116 6 -11 10 -19 12 -24 4z"/>
<path d="M3038 453 c6 -2 18 -2 25 0 6 3 1 5 -13 5 -14 0 -19 -2 -12 -5z"/>
<path d="M11080 451 c0 -10 24 -21 47 -21 13 0 13 3 3 15 -13 16 -50 21 -50 6z"/>
<path d="M5000 435 c0 -8 5 -15 10 -15 6 0 10 7 10 15 0 8 -4 15 -10 15 -5 0
-10 -7 -10 -15z"/>
<path d="M2378 423 c6 -2 10 -9 6 -14 -9 -15 23 -10 36 6 11 13 8 15 -21 14
-19 0 -28 -3 -21 -6z"/>
<path d="M1208 403 c7 -3 16 -2 19 1 4 3 -2 6 -13 5 -11 0 -14 -3 -6 -6z"/>
<path d="M1338 403 c6 -2 18 -2 25 0 6 3 1 5 -13 5 -14 0 -19 -2 -12 -5z"/>
<path d="M2130 397 c0 -8 -6 -17 -14 -20 -8 -3 -20 -15 -26 -26 -15 -30 7 -27
43 4 26 23 27 27 13 41 -14 13 -16 13 -16 1z"/>
<path d="M5015 390 c-3 -5 -1 -10 4 -10 6 0 11 5 11 10 0 6 -2 10 -4 10 -3 0
-8 -4 -11 -10z"/>
<path d="M2180 360 c0 -5 4 -10 9 -10 6 0 13 5 16 10 3 6 -1 10 -9 10 -9 0
-16 -4 -16 -10z"/>
<path d="M10619 354 c-10 -13 -10 -17 2 -25 15 -10 59 -12 59 -3 0 3 -5 14
-10 25 -13 23 -33 25 -51 3z"/>
<path d="M5021 344 c0 -11 3 -14 6 -6 3 7 2 16 -1 19 -3 4 -6 -2 -5 -13z"/>
<path d="M3047 343 c-12 -11 -8 -23 8 -23 8 0 15 7 15 15 0 16 -12 20 -23 8z"/>
<path d="M1664 329 c-3 -6 -1 -16 5 -22 8 -8 11 -5 11 11 0 24 -5 28 -16 11z"/>
<path d="M240 275 c0 -16 16 -20 24 -6 3 5 -1 11 -9 15 -9 3 -15 0 -15 -9z"/>
<path d="M12026 282 c-3 -6 -1 -14 5 -17 15 -10 25 3 12 16 -7 7 -13 7 -17 1z"/>
<path d="M2860 270 c0 -5 5 -10 10 -10 6 0 10 5 10 10 0 6 -4 10 -10 10 -5 0
-10 -4 -10 -10z"/>
<path d="M7364 262 c-6 -10 -15 -32 -18 -50 -4 -17 -12 -34 -17 -37 -12 -8
-12 -55 1 -55 5 0 12 12 15 28 4 15 10 35 16 44 5 10 9 29 9 43 0 14 5 25 10
25 6 0 10 5 10 10 0 16 -14 12 -26 -8z"/>
<path d="M2860 230 c0 -5 5 -10 10 -10 6 0 10 5 10 10 0 6 -4 10 -10 10 -5 0
-10 -4 -10 -10z"/>
<path d="M7520 221 c0 -5 5 -13 10 -16 6 -3 10 -2 10 4 0 5 -4 13 -10 16 -5 3
-10 2 -10 -4z"/>
<path d="M7720 218 c0 -10 10 -23 23 -29 23 -13 92 -13 115 0 7 4 -14 5 -46 3
-53 -4 -61 -2 -76 19 -12 18 -16 20 -16 7z"/>
<path d="M12050 220 c0 -12 35 -31 44 -23 8 9 -14 33 -30 33 -8 0 -14 -4 -14
-10z"/>
<path d="M4786 194 c-9 -24 -7 -31 7 -31 9 0 12 9 9 24 -5 27 -8 28 -16 7z"/>
<path d="M7390 126 c0 -9 5 -16 10 -16 6 0 10 4 10 9 0 6 -4 13 -10 16 -5 3
-10 -1 -10 -9z"/>
<path d="M4760 104 c-13 -32 -13 -67 -1 -59 6 3 9 13 9 23 -1 9 2 27 6 40 10
31 -2 28 -14 -4z"/>
<path d="M7560 110 c0 -5 5 -10 10 -10 6 0 10 5 10 10 0 6 -4 10 -10 10 -5 0
-10 -4 -10 -10z"/>
<path d="M7279 58 c-1 -7 -1 -19 0 -25 1 -7 -3 -13 -9 -13 -5 0 -10 -4 -10
-10 0 -5 14 -10 31 -10 26 0 30 3 24 18 -4 9 -10 25 -12 35 -6 20 -22 23 -24
5z"/>
<path d="M10275 20 c3 -5 10 -10 16 -10 5 0 9 5 9 10 0 6 -7 10 -16 10 -8 0
-12 -4 -9 -10z"/>
<path d="M4765 10 c-3 -5 -1 -10 4 -10 6 0 11 5 11 10 0 6 -2 10 -4 10 -3 0
-8 -4 -11 -10z"/>
</g>
</svg>
